<svg width="24" height="24" viewBox="0 0 24 24" fill="none" xmlns="http://www.w3.org/2000/svg">
<g id="VectorIcons">
<g id="Vector">
<path d="M17.6 17.6V20H6C5.04522 20 4.12955 19.6207 3.45441 18.9456C2.77928 18.2705 2.4 17.3548 2.4 16.4C2.4 15.4452 2.77928 14.5295 3.45441 13.8544C4.12955 13.1793 5.04522 12.8 6 12.8H6.4V11.2H6C4.62087 11.2 3.29823 11.7479 2.32304 12.723C1.34786 13.6982 0.8 15.0209 0.8 16.4C0.8 17.7791 1.34786 19.1018 2.32304 20.077C3.29823 21.0521 4.62087 21.6 6 21.6H17.6V24H24V17.6H17.6ZM22.4 22.4H19.2V19.2H22.4V22.4Z" fill="white"/>
<path d="M16 16.8H14.4V14.4H9.6V16.8H8V14.4C8.00042 13.9758 8.16913 13.5691 8.4691 13.2691C8.76906 12.9691 9.17578 12.8004 9.6 12.8H14.4C14.8242 12.8004 15.2309 12.9691 15.5309 13.2691C15.8309 13.5691 15.9996 13.9758 16 14.4V16.8ZM12 12C11.5253 12 11.0613 11.8592 10.6666 11.5955C10.272 11.3318 9.96434 10.957 9.78269 10.5184C9.60104 10.0799 9.55351 9.59734 9.64611 9.13178C9.73872 8.66623 9.9673 8.23859 10.3029 7.90294C10.6386 7.5673 11.0662 7.33872 11.5318 7.24611C11.9973 7.15351 12.4799 7.20104 12.9184 7.38269C13.357 7.56434 13.7318 7.87195 13.9955 8.26663C14.2592 8.66131 14.4 9.12532 14.4 9.6C14.3994 10.2363 14.1463 10.8464 13.6964 11.2964C13.2464 11.7463 12.6363 11.9994 12 12ZM12 8.8C11.8418 8.8 11.6871 8.84692 11.5555 8.93482C11.424 9.02273 11.3214 9.14767 11.2609 9.29385C11.2003 9.44003 11.1845 9.60089 11.2154 9.75607C11.2462 9.91125 11.3224 10.0538 11.4343 10.1657C11.5462 10.2776 11.6887 10.3538 11.8439 10.3846C11.9991 10.4155 12.16 10.3997 12.3061 10.3391C12.4523 10.2786 12.5773 10.176 12.6652 10.0445C12.7531 9.9129 12.8 9.75822 12.8 9.6C12.7998 9.38789 12.7154 9.18453 12.5654 9.03455C12.4155 8.88456 12.2121 8.80021 12 8.8Z" fill="white"/>
<path d="M18 2.4H6.4V0H0V6.4H6.4V4H18C18.9548 4 19.8705 4.37928 20.5456 5.05441C21.2207 5.72955 21.6 6.64522 21.6 7.6C21.6 8.55478 21.2207 9.47045 20.5456 10.1456C19.8705 10.8207 18.9548 11.2 18 11.2H17.6V12.8H18C19.3791 12.8 20.7018 12.2521 21.677 11.277C22.6521 10.3018 23.2 8.97912 23.2 7.6C23.2 6.22087 22.6521 4.89823 21.677 3.92304C20.7018 2.94785 19.3791 2.4 18 2.4ZM4.8 4.8H1.6V1.6H4.8V4.8Z" fill="white"/>
</g>
</g>
</svg>
