<svg width="24" height="24" viewBox="0 0 24 24" fill="none" xmlns="http://www.w3.org/2000/svg">
<g id="VectorIcons">
<path id="Vector" d="M22 0H2C1.46957 0 0.960859 0.210714 0.585786 0.585786C0.210714 0.960859 0 1.46957 0 2L0 22C0 22.5304 0.210714 23.0391 0.585786 23.4142C0.960859 23.7893 1.46957 24 2 24H22C22.5304 24 23.0391 23.7893 23.4142 23.4142C23.7893 23.0391 24 22.5304 24 22V2C24 1.46957 23.7893 0.960859 23.4142 0.585786C23.0391 0.210714 22.5304 0 22 0ZM6 16C5.80222 16 5.60888 15.9413 5.44443 15.8315C5.27998 15.7216 5.15181 15.5654 5.07612 15.3827C5.00043 15.2 4.98063 14.9989 5.01921 14.8049C5.0578 14.6109 5.15304 14.4327 5.29289 14.2929C5.43274 14.153 5.61093 14.0578 5.80491 14.0192C5.99889 13.9806 6.19996 14.0004 6.38268 14.0761C6.56541 14.1518 6.72159 14.28 6.83147 14.4444C6.94135 14.6089 7 14.8022 7 15C6.99973 15.2651 6.89429 15.5193 6.70681 15.7068C6.51933 15.8943 6.26513 15.9997 6 16ZM22 6H19.816C19.5801 5.33279 19.1159 4.77044 18.5055 4.41237C17.8951 4.05429 17.1778 3.92353 16.4803 4.0432C15.7828 4.16287 15.15 4.52527 14.6939 5.06634C14.2378 5.60741 13.9876 6.29231 13.9876 7C13.9876 7.70769 14.2378 8.39259 14.6939 8.93366C15.15 9.47473 15.7828 9.83712 16.4803 9.95679C17.1778 10.0765 17.8951 9.94571 18.5055 9.58763C19.1159 9.22955 19.5801 8.66721 19.816 8H22V12H18V14H22V16H20V18H22V22H14V20.816C14.6672 20.5801 15.2296 20.1159 15.5876 19.5055C15.9457 18.8951 16.0765 18.1778 15.9568 17.4803C15.8371 16.7828 15.4747 16.15 14.9337 15.6939C14.3926 15.2377 13.7077 14.9876 13 14.9876C12.2923 14.9876 11.6074 15.2377 11.0663 15.6939C10.5253 16.15 10.1629 16.7828 10.0432 17.4803C9.92353 18.1778 10.0543 18.8951 10.4124 19.5055C10.7704 20.1159 11.3328 20.5801 12 20.816V22H7V17.816C7.66721 17.5801 8.22955 17.1159 8.58763 16.5055C8.94571 15.8951 9.07647 15.1778 8.95679 14.4803C8.83712 13.7828 8.47473 13.15 7.93366 12.6939C7.39259 12.2378 6.70769 11.9876 6 11.9876C5.29231 11.9876 4.60741 12.2378 4.06634 12.6939C3.52527 13.15 3.16287 13.7828 3.0432 14.4803C2.92353 15.1778 3.05429 15.8951 3.41237 16.5055C3.77045 17.1159 4.33279 17.5801 5 17.816V22H2V2H6V8H8V2H10V12H12V2H22V6ZM18 7C18 7.19778 17.9413 7.39112 17.8315 7.55557C17.7216 7.72002 17.5654 7.84819 17.3827 7.92388C17.2 7.99957 16.9989 8.01937 16.8049 7.98078C16.6109 7.9422 16.4327 7.84696 16.2929 7.70711C16.153 7.56725 16.0578 7.38907 16.0192 7.19509C15.9806 7.00111 16.0004 6.80004 16.0761 6.61732C16.1518 6.43459 16.28 6.27841 16.4444 6.16853C16.6089 6.05865 16.8022 6 17 6C17.2651 6.00026 17.5193 6.10571 17.7068 6.29318C17.8943 6.48066 17.9997 6.73486 18 7Z" fill="white"/>
</g>
</svg>
