<svg width="16" height="16" viewBox="0 0 16 16" fill="none" xmlns="http://www.w3.org/2000/svg">
<g id="VectorIcons">
<path id="color" fill-rule="evenodd" clip-rule="evenodd" d="M8.01385 12.5753C8.32505 12.5703 8.57626 12.3165 8.57626 12.0039V11.9951V11.9957L8.57626 1.95167L12.1688 5.54624C12.2726 5.65003 12.4151 5.71319 12.5725 5.71319C12.8881 5.71319 13.1437 5.45683 13.1437 5.14171C13.1437 4.98352 13.0799 4.84096 12.9762 4.7378L8.40937 0.168437C8.40812 0.167187 8.40562 0.164686 8.40312 0.16281L8.40187 0.16156C8.39625 0.155933 8.39062 0.150305 8.38437 0.145303L8.38375 0.144679C8.37625 0.137801 8.36813 0.130923 8.36 0.124045L8.35875 0.122794C8.355 0.119667 8.34938 0.115916 8.34376 0.111539L8.34251 0.110289C8.33501 0.104662 8.32563 0.0977836 8.31563 0.0915307L8.31314 0.0902807C8.30814 0.0865292 8.30064 0.0821516 8.29251 0.0777748L8.29001 0.0765248C8.28376 0.0727734 8.27564 0.0677713 8.26627 0.0633945L8.26314 0.0621445C8.25877 0.0596435 8.25064 0.0558916 8.24252 0.0527654L8.23877 0.0515141C8.23377 0.0490133 8.22502 0.0452618 8.21565 0.040885L8.2119 0.0396351C8.20627 0.0371341 8.19628 0.0340079 8.18628 0.0308815L8.18253 0.0296316C8.17878 0.028381 8.17065 0.0252546 8.16253 0.0227536L8.15878 0.0215024C8.15316 0.0202519 8.14316 0.0171258 8.13316 0.01525L8.12941 0.0146244C8.12441 0.0133738 8.11504 0.0108737 8.10566 0.00962329L8.10191 0.00899768C8.09629 0.00774709 8.08692 0.00649695 8.07754 0.00524652L8.07442 0.00462091C8.06754 0.00337032 8.05755 0.00274493 8.04755 0.00211971L8.0463 0.00211971C8.03755 0.00149434 8.02755 0.000869755 8.01693 0.000869756H8.0163C8.01255 0.000869756 8.00756 0.00024414 8.00255 0.000244141C7.99818 0.000244141 7.99318 0.000244545 7.98818 0.000869758L7.98881 0.000869758C7.97131 0.00149497 7.95444 0.00211991 7.93757 0.00462092L7.94007 0.0039953C7.93569 0.00462051 7.93444 0.00524653 7.93319 0.00524653L7.93694 0.00462092C7.92194 0.00649656 7.91007 0.00837226 7.8982 0.0108733L7.90195 0.0102477C7.88882 0.0127487 7.88007 0.0146244 7.8707 0.0165L7.87445 0.01525C7.8632 0.0177511 7.8557 0.0196268 7.84883 0.0215024L7.85258 0.0202524C7.83696 0.0246292 7.82571 0.028381 7.81446 0.0315072L7.81821 0.0302559C7.80696 0.0340075 7.80071 0.0365083 7.79384 0.0390095L7.79759 0.0377595C7.78384 0.0433868 7.77384 0.0471378 7.76384 0.0521398L7.76759 0.0508898C7.74884 0.0596435 7.7351 0.0665208 7.72135 0.0740237L7.72447 0.0727724C7.72197 0.074023 7.72135 0.0746484 7.72072 0.0752736L7.7226 0.0740237C7.70885 0.0815265 7.69885 0.0884044 7.68823 0.0952819L7.6901 0.094032C7.68073 0.100284 7.67323 0.105286 7.66636 0.110288L7.66761 0.109037C7.65386 0.119666 7.64136 0.129046 7.63011 0.13905L7.63074 0.138424C7.62949 0.139675 7.62824 0.140925 7.62699 0.142175C7.61761 0.150303 7.60824 0.157807 7.60074 0.165936L3.03455 4.73466C2.92769 4.83845 2.86146 4.98351 2.86146 5.1442C2.86146 5.45996 3.11705 5.71568 3.43262 5.71568C3.43887 5.71568 3.44387 5.71568 3.45012 5.71505H3.44887C3.6026 5.71068 3.74132 5.64565 3.8413 5.54311L7.43324 1.94854L7.43324 11.9926V12.0001C7.43324 12.3159 7.68884 12.5716 8.0044 12.5716H8.01315H8.01253L8.01385 12.5753ZM0.579285 14.8573H0.571162C0.255577 14.8573 0 15.1131 0 15.4288C0 15.7446 0.256217 16.0003 0.571162 16.0003H0.579911H15.4209H15.429C15.7446 16.0003 16.0002 15.7446 16.0002 15.4288C16.0002 15.1131 15.7446 14.8573 15.429 14.8573H15.4202H0.579285Z" fill="rgb(0, 156, 223)"/>
</g>
</svg>
