<svg width="24" height="24" viewBox="0 0 24 24" fill="none" xmlns="http://www.w3.org/2000/svg">
<g id="VectorIcons">
<path id="color" fill-rule="evenodd" clip-rule="evenodd" d="M23.3218 8.35025L12.4552 0.151279C12.1879 -0.0503524 11.8194 -0.0504338 11.5521 0.15108L0.675454 8.35005C0.250161 8.73748 0.0288011 9.20721 0.00114387 9.70738L0 22.2692C0.00290964 23.2233 0.773738 23.9941 1.72549 23.997L8.24897 23.997C8.66313 23.997 8.99887 23.6613 8.99887 23.2471V18.0007C8.99887 16.3441 10.3419 15.0011 11.9985 15.0011C13.6551 15.0011 14.9981 16.3441 14.9981 18.0007V23.2501C14.9981 23.6643 15.3339 24 15.748 24H22.2682C23.2221 23.9971 23.9931 23.2269 23.997 22.2753L23.997 9.74878C23.9675 9.20702 23.7465 8.73815 23.3795 8.39847L23.3218 8.35025ZM22.4984 9.7912L22.4972 22.2722C22.4967 22.3966 22.3934 22.4998 22.2659 22.5002L16.4979 22.5002V18.0007C16.4979 15.5158 14.4835 13.5013 11.9985 13.5013C9.51353 13.5013 7.49906 15.5158 7.49906 18.0007V22.4972H1.72779C1.60307 22.4968 1.5002 22.3939 1.49981 22.2669L1.49982 9.74877C1.5048 9.67934 1.55385 9.57526 1.63543 9.49998L12.0032 1.68906L22.381 9.51922C22.4508 9.59293 22.4926 9.68922 22.4984 9.7912Z" fill="white"/>
</g>
</svg>
