<svg width="24" height="24" viewBox="0 0 24 24" fill="none" xmlns="http://www.w3.org/2000/svg">
<g id="VectorIcons">
<path id=" &#226;&#134;&#179;Color" fill-rule="evenodd" clip-rule="evenodd" d="M12 4.86377e-06C5.37259 5.44316e-06 4.09359e-06 5.37259 4.67297e-06 12C5.25236e-06 18.6274 5.37259 24 12 24C18.6274 24 24 18.6274 24 12C24 5.37259 18.6274 4.28438e-06 12 4.86377e-06ZM13.125 7.125C13.125 6.50368 12.6213 6 12 6C11.3787 6 10.875 6.50368 10.875 7.125C10.875 7.7049 11.3138 8.18232 11.8774 8.2434L12.0004 8.25C12.6216 8.24976 13.125 7.74618 13.125 7.125ZM11.2 15.8769L11.2 10.1231C11.2 9.83419 11.5582 9.6 12 9.6C12.4418 9.6 12.8 9.83419 12.8 10.1231L12.8 15.8769C12.8 16.1658 12.4418 16.4 12 16.4C11.5582 16.4 11.2 16.1658 11.2 15.8769Z" fill="#009CDF"/>
</g>
</svg>
