<svg width="40" height="40" viewBox="0 0 40 40" fill="none" xmlns="http://www.w3.org/2000/svg">
<g id="VectorLogo">
<path id="VectorLogo_2" fill-rule="evenodd" clip-rule="evenodd" d="M18.6244 0.0272148C18.302 0.0596047 17.9754 0.161242 17.8987 0.253106C17.7914 0.38141 18.1545 0.413102 19.4664 0.389926C20.4908 0.371916 21.1932 0.30211 21.2222 0.215411C21.2499 0.132901 21.0401 0.0703548 20.7321 0.0695171C20.436 0.0686794 19.9725 0.0456435 19.7021 0.01814C19.4317 -0.00922389 18.9468 -0.00517514 18.6244 0.0272148ZM21.8442 0.446469C22.3186 0.569746 22.1182 0.908025 21.5633 0.920869C20.8635 0.937064 18.8235 1.14676 17.9462 1.29279C17.3579 1.39066 17.5151 1.4123 18.9136 1.42626C19.832 1.43534 20.6222 1.50305 20.6695 1.57663C20.7168 1.65034 21.3561 1.75477 22.0901 1.8088C22.824 1.86283 23.6727 1.92998 23.976 1.95818C24.5078 2.00733 25.0166 1.84691 25.1967 1.573C25.2505 1.49118 25.3832 1.49328 25.5479 1.57858C25.6934 1.65411 26.1127 1.85822 26.4797 2.03232C26.8468 2.20627 27.147 2.39433 27.147 2.45018C27.147 2.50588 27.7316 2.84905 28.4463 3.2126C29.161 3.57614 30.0246 4.02332 30.3655 4.20649C30.7066 4.38966 31.01 4.51531 31.0398 4.48557C31.1162 4.40963 29.2523 2.87041 28.8589 2.68472C28.6802 2.60026 28.5 2.3618 28.4582 2.15476C28.3768 1.74988 27.9184 1.45684 27.2173 1.36148C26.9857 1.32993 26.7329 1.25454 26.6555 1.19381C26.5782 1.13322 26.1988 1.03814 25.8125 0.982717C25.4262 0.927152 24.6361 0.763108 24.0566 0.618191C23.4772 0.473134 22.6871 0.360887 22.3008 0.368565C21.9145 0.376384 21.709 0.411426 21.8442 0.446469ZM13.9166 1.42291C14.0179 1.46326 14.1391 1.45823 14.1857 1.41188C14.2324 1.36553 14.1495 1.33258 14.0014 1.33859C13.8378 1.34529 13.8045 1.37838 13.9166 1.42291ZM13.381 1.60678C13.381 1.68357 13.448 1.74639 13.5297 1.74639C13.6115 1.74639 13.6394 1.68357 13.5917 1.60678C13.5439 1.53 13.4771 1.46717 13.4429 1.46717C13.4088 1.46717 13.381 1.53 13.381 1.60678ZM10.7823 2.12265C10.403 2.3255 10.0026 2.60752 8.68411 3.59988C8.45725 3.77062 8.02812 4.14604 7.7306 4.43392C7.43295 4.72194 7.1367 4.95746 7.07236 4.95746C7.00789 4.95746 6.68664 5.25581 6.3585 5.62062C6.03036 5.98528 5.50079 6.57109 5.18165 6.92236C4.86264 7.27348 4.39839 7.8075 4.1499 8.10906C3.90127 8.41048 3.43927 8.9713 3.12293 9.35523C2.5161 10.092 1.01969 12.997 1.01969 13.4385C1.01969 13.5111 0.929786 13.7529 0.819939 13.9758C0.710092 14.1988 0.584513 14.5697 0.540827 14.8001C0.497281 15.0304 0.3592 15.7215 0.234183 16.3358C0.0855661 17.0661 0.00465587 18.2016 0.000160859 19.6167C-0.00854823 22.4267 0.337287 24.3533 0.817551 24.1701C1.06422 24.076 1.54083 25.8913 1.30709 26.0348C1.17294 26.1173 1.19176 26.3261 1.39081 26.9626C1.53212 27.4143 1.69605 27.8049 1.75518 27.8305C1.81418 27.8562 1.8625 28.1195 1.8625 28.4156C1.8625 28.7118 1.91855 28.9885 1.98696 29.0306C2.05537 29.0727 2.22281 29.5161 2.35892 30.0161C2.49518 30.5162 2.66037 30.9252 2.72611 30.9252C2.79199 30.9252 2.84579 31.0621 2.84579 31.2292C2.84579 31.5402 3.73215 32.9595 4.10846 33.2513C4.5383 33.5846 4.5147 33.2594 4.05775 32.5492C3.79789 32.1456 3.50613 31.568 3.40907 31.2656C3.312 30.9632 3.17729 30.6068 3.10945 30.4735C2.94538 30.1505 2.95212 29.5291 3.1197 29.5291C3.19317 29.5291 3.31481 29.6386 3.3901 29.7723C3.46666 29.9083 3.57819 29.9614 3.64295 29.8928C3.70672 29.8254 3.67989 29.742 3.58325 29.7078C3.48675 29.6735 3.40766 29.5562 3.40766 29.4472C3.40766 29.3381 3.28124 29.0145 3.12672 28.7279C2.97221 28.4414 2.84579 28.0684 2.84579 27.899C2.84579 27.7297 2.78258 27.5522 2.70532 27.5047C2.62806 27.4573 2.56485 27.3249 2.56485 27.2106C2.56485 27.0962 2.43421 26.7387 2.27464 26.4161C2.06955 26.0014 1.96223 25.4406 1.90858 24.5031C1.86672 23.7736 1.74156 22.8988 1.63017 22.5591C1.51891 22.2195 1.40275 21.3267 1.37198 20.575C1.34122 19.8233 1.24935 19.0843 1.16788 18.933C0.956335 18.5401 0.975439 16.8624 1.19232 16.7905C1.28742 16.759 1.4439 16.2668 1.54012 15.697C1.83076 13.9765 1.84972 13.8746 1.93765 13.564C2.11464 12.9393 2.8972 11.0218 3.05705 10.8212C3.14878 10.706 3.37297 10.2976 3.55516 9.91368C3.73734 9.52975 3.93793 9.15279 4.00086 9.07601C4.06394 8.99922 4.27225 8.74792 4.46371 8.51756C4.65531 8.2872 4.81474 8.0359 4.81811 7.95911C4.82149 7.88233 5.01126 7.66537 5.23966 7.47703C5.46821 7.2887 5.65517 7.07928 5.65517 7.01185C5.65517 6.83664 6.99974 5.51591 7.17814 5.51591C7.25989 5.51591 7.37732 5.43633 7.43913 5.33902C7.59997 5.0859 8.46146 4.39902 8.61823 4.39902C8.69099 4.39902 8.46484 4.67098 8.11591 5.00339C7.43688 5.64994 7.3592 5.79513 7.69197 5.79513C7.80786 5.79513 7.90268 5.73231 7.90268 5.65552C7.90268 5.57873 8.05761 5.51591 8.24683 5.51591C8.43618 5.51591 8.64155 5.43116 8.70335 5.32757C8.82977 5.11578 9.19289 4.90902 10.7121 4.18429C11.2915 3.90786 12.1132 3.51541 12.5382 3.31214C12.9631 3.10886 13.3974 2.85882 13.5033 2.75634C13.7077 2.55879 13.5946 2.57108 12.3977 2.87599C11.7793 3.03361 11.6953 3.03347 11.6953 2.87432C11.6953 2.80367 11.8796 2.70567 12.105 2.65638C12.3304 2.60724 12.5512 2.47251 12.5958 2.35705C12.659 2.19343 12.6071 2.16858 12.3617 2.24467C12.1884 2.29842 12.0017 2.41206 11.9471 2.49695C11.8746 2.60961 11.8045 2.60877 11.689 2.49401C11.5757 2.38135 11.574 2.30959 11.6831 2.24257C11.9433 2.08272 11.8515 1.88573 11.5198 1.89159C11.346 1.89466 11.0141 1.99867 10.7823 2.12265ZM17.9294 4.74134C17.8864 4.85275 17.6196 5.01735 17.3369 5.10713C17.054 5.1969 16.7625 5.32562 16.689 5.39319C16.6156 5.46062 16.4079 5.51591 16.2276 5.51591C15.7876 5.51591 15.2103 5.90808 15.0559 6.3117C14.9077 6.69912 14.5212 6.88508 14.3697 6.64174C14.3096 6.54499 13.8716 6.44824 13.3655 6.41961C12.8719 6.39183 12.626 6.403 12.8191 6.44447C13.0122 6.48607 13.2335 6.56802 13.3107 6.62694C13.388 6.68571 13.6351 6.77772 13.8598 6.83119C14.3686 6.95237 15.1302 7.69608 15.2543 8.19296C15.3438 8.55079 15.3275 8.56377 14.8617 8.50639L14.3758 8.4465L14.7212 8.7898C15.1037 9.16996 15.1353 9.31586 14.9212 9.71347C14.7432 10.0439 13.8024 10.1048 13.8024 9.78565C13.8024 9.6769 13.7246 9.56214 13.6296 9.53072C13.5021 9.48842 13.4949 9.38874 13.6019 9.15014C13.7109 8.90736 13.6927 8.71553 13.5289 8.3806C13.306 7.92463 12.7178 7.38503 12.5863 7.51557C12.5462 7.55564 12.7086 7.99485 12.9472 8.49173C13.1857 8.98861 13.381 9.43327 13.381 9.4799C13.381 9.67745 13.0131 9.54231 12.8517 9.28543C12.7552 9.13185 12.6061 9.0062 12.5206 9.0062C12.4341 9.0062 12.3976 9.13032 12.4384 9.28543C12.4862 9.46692 12.4426 9.56465 12.3143 9.56465C12.2057 9.56465 12.1168 9.46273 12.1168 9.3382C12.1168 8.98666 11.6994 9.38525 11.6791 9.7562C11.6636 10.037 11.6592 10.0379 11.5993 9.77407C11.4639 9.1782 11.0776 8.52231 10.6133 8.09942L10.1284 7.65797L10.6358 7.21526C11.2693 6.6624 11.007 6.6469 10.0689 7.18176C8.63045 8.00169 6.47017 10.7137 6.91125 11.1458C7.03992 11.2717 7.12743 11.245 7.28869 11.0306C7.49616 10.7547 7.50108 10.7546 7.70068 11.0223C7.88863 11.2745 7.90338 11.2551 7.91293 10.7431C7.92305 10.2055 8.27281 9.41833 8.54083 9.33038C8.61837 9.30497 8.67807 9.74461 8.68186 10.3678C8.68607 11.0623 8.76783 11.607 8.91012 11.8896C9.10299 12.2727 9.10636 12.3815 8.93555 12.7273C8.63494 13.3364 7.59631 13.7735 6.6702 13.6807C5.95395 13.6089 5.93527 13.6159 6.10706 13.8891C6.20469 14.0446 6.42747 14.1718 6.60207 14.1718C6.77864 14.1718 6.91939 14.2576 6.91939 14.3649C6.91939 14.4712 7.04961 14.5919 7.20876 14.6333C7.4609 14.6989 7.48548 14.7771 7.39938 15.2429C7.34501 15.5368 7.24641 15.7983 7.18024 15.8239C7.11394 15.8495 7.05986 15.9614 7.05986 16.0726C7.05986 16.1838 6.96505 16.311 6.84916 16.3551C6.615 16.4444 6.55811 16.8245 6.77892 16.8245C6.85618 16.8245 6.91939 16.7302 6.91939 16.615C6.91939 16.4754 7.05986 16.4056 7.3408 16.4056C7.62174 16.4056 7.76221 16.4754 7.76221 16.615C7.76221 16.7302 7.82542 16.8245 7.90268 16.8245C8.22014 16.8245 8.01589 17.2281 7.67779 17.269L7.31257 17.3131L7.58831 17.6621C7.96996 18.1452 8.08543 18.5811 7.97994 19.1402C7.89242 19.6036 7.87135 19.6167 7.21845 19.6167C6.32816 19.6167 5.85787 19.1724 5.97684 18.4438C6.04427 18.0313 6.02067 17.9704 5.82064 18.041C5.69099 18.0868 5.50669 18.1844 5.41118 18.2578C5.31552 18.3313 5.12588 18.3482 4.98977 18.2953C4.77246 18.2108 4.79367 18.1562 5.16353 17.8493C5.52692 17.5476 5.54139 17.512 5.26888 17.5902C5.03668 17.6568 4.95282 17.6229 4.95282 17.4621C4.95282 17.3417 4.9156 17.2433 4.86995 17.2433C4.72737 17.2433 4.26003 17.8623 4.25511 18.0576C4.24655 18.4014 3.90071 18.1371 3.76305 17.6815C3.65053 17.309 3.56513 17.2378 3.27141 17.2719C2.95142 17.309 2.91476 17.3765 2.9038 17.9487C2.89355 18.4842 2.94327 18.6087 3.21972 18.7384C3.54336 18.8902 3.83005 18.7427 3.54813 18.5696C3.38589 18.4699 3.49223 18.2206 3.69689 18.2206C3.76965 18.2206 3.82907 18.3148 3.82907 18.43C3.82907 18.6816 4.10481 18.7144 4.12209 18.4649C4.12869 18.369 4.19261 18.4789 4.26396 18.7092C4.40036 19.1491 4.18095 20.4544 3.97052 20.4544C3.73777 20.4544 3.69043 19.9952 3.90703 19.8378C4.0704 19.719 4.10285 19.5668 4.02783 19.2702C3.93021 18.8836 3.92024 18.879 3.81165 19.171C3.74886 19.3393 3.63241 19.4771 3.55263 19.4771C3.2693 19.4771 3.4137 20.1189 3.80449 20.597C4.32142 21.2293 4.44081 21.5609 4.18671 21.658C4.07321 21.7012 4.02376 21.8284 4.07194 21.9534C4.1433 22.1381 4.06422 22.1604 3.57145 22.0947C3.24964 22.0518 2.98626 22.0662 2.98626 22.1268C2.98626 22.1872 2.85983 22.2696 2.70532 22.3098C2.45823 22.374 2.42438 22.5002 2.42438 23.3554C2.42438 24.638 2.78272 25.4717 3.47481 25.7998C3.75041 25.9305 4.03289 26.1861 4.10242 26.368C4.24345 26.7367 4.51035 26.8765 5.07363 26.8765C5.2818 26.8765 5.5567 26.9865 5.68425 27.1208C6.10074 27.5593 6.33574 27.7104 7.01309 27.9748C7.5199 28.1727 7.70546 28.3282 7.7844 28.6212C7.88989 29.0137 8.41848 29.6687 8.62947 29.6687C8.69324 29.6687 8.74549 29.5189 8.74549 29.336C8.74549 29.0919 8.83905 28.9855 9.09667 28.9365C9.28981 28.8997 9.44784 28.9239 9.44784 28.9901C9.44784 29.0561 9.51105 29.1103 9.58831 29.1103C9.66557 29.1103 9.72878 28.9916 9.72878 28.8466C9.72878 28.7015 9.84607 28.4388 9.98949 28.2628C10.2288 27.969 10.2862 27.9576 10.6918 28.1246C11.1645 28.3192 11.2721 28.7315 10.9881 29.2591C10.8383 29.5372 10.1502 29.6443 10.1502 29.3895C10.1502 29.3127 10.0554 29.2499 9.93948 29.2499C9.82359 29.2499 9.72878 29.3172 9.72878 29.3994C9.72878 29.6728 9.30133 29.9789 9.02137 29.9062C8.70532 29.824 8.68987 29.8631 8.89088 30.2364C8.97432 30.3912 9.18404 30.5064 9.38252 30.5064C9.5966 30.5064 9.72878 30.5863 9.72878 30.7158C9.72878 30.831 9.79199 30.9252 9.86925 30.9252C9.9465 30.9252 10.0097 30.7053 10.0097 30.4366C10.0097 30.051 10.0655 29.948 10.2745 29.948C10.5991 29.948 10.993 30.5141 10.993 30.9808C10.993 31.2272 10.903 31.3428 10.6769 31.3861C10.5032 31.4195 10.6137 31.4207 10.9228 31.3889C11.2318 31.3571 11.5044 31.2751 11.5285 31.2067C11.5779 31.0669 12.1168 31.4823 12.1168 31.6602C12.1168 31.8606 12.5966 32.2831 12.9454 32.3899C13.2633 32.4871 13.2783 32.4663 13.2089 32.0233C13.1683 31.7649 13.1861 31.4278 13.2482 31.2743C13.3342 31.0618 13.3636 31.1295 13.3711 31.5573C13.3843 32.3102 13.7198 32.7939 14.0916 32.5961C14.3003 32.4851 14.3643 32.4964 14.3643 32.644C14.3643 33.2621 15.305 34.3221 16.2135 34.7281C16.6942 34.9428 16.7345 34.9424 16.8225 34.7217C16.8976 34.5328 16.9638 34.5835 17.1516 34.974C17.3349 35.355 17.4747 35.4658 17.7858 35.4769C18.0054 35.4848 18.2409 35.5791 18.3092 35.6863C18.399 35.8271 18.4342 35.7746 18.4358 35.4975C18.438 35.0871 18.6746 34.9763 18.8084 35.323C18.853 35.4382 19.0406 35.5324 19.2255 35.5324C19.4103 35.5324 19.5616 35.5968 19.5616 35.6755C19.5616 35.7541 19.7196 35.8782 19.9128 35.9513C20.1059 36.0243 20.264 36.1484 20.264 36.227C20.264 36.3057 20.3502 36.3701 20.4557 36.3701C20.5612 36.3701 20.8185 36.5038 21.0274 36.6672L21.4075 36.9643L22.1621 36.597C22.5772 36.3949 22.9558 36.1671 23.0034 36.0905C23.051 36.0139 23.2682 35.9513 23.4859 35.9513C24.0021 35.9513 24.7702 35.6264 25.657 35.0327C26.0495 34.7701 26.453 34.5551 26.5538 34.5551C26.7723 34.5551 27.5684 33.9906 27.5684 33.8356C27.5684 33.7758 27.3509 33.8544 27.0852 34.0102C26.6737 34.2515 26.5223 34.2717 26.0667 34.1459C25.339 33.945 25.3209 33.9496 25.3209 34.335C25.3209 34.8059 24.674 35.5324 24.2548 35.5324C23.9714 35.5324 23.9162 35.4635 23.9162 35.1087C23.9162 34.7144 23.8941 34.6961 23.6001 34.8464C23.4262 34.9352 22.9853 35.3144 22.6199 35.6889C22.1884 36.1316 21.8378 36.3701 21.6187 36.3701C21.2554 36.3701 19.2807 34.6692 19.2807 34.3562C19.2807 34.2613 19.1187 34.0974 18.9208 33.9921C18.6267 33.8356 18.5085 33.8332 18.2738 33.979C18.0267 34.1323 17.9407 34.1144 17.6576 33.8498C17.4765 33.6809 17.2355 33.578 17.1217 33.6214C16.9134 33.7009 16.4085 33.3007 16.0864 32.8011C15.4862 31.8694 15.3475 31.4581 15.3475 30.6096C15.3475 29.4597 15.5639 28.998 16.1552 28.8862C16.4669 28.8273 16.6118 28.721 16.6118 28.5513C16.6118 28.2279 16.2706 28.1054 15.6782 28.2158C15.2578 28.2943 15.2142 28.2746 15.297 28.0442C15.3482 27.9011 15.4741 27.6862 15.5768 27.5667C15.7319 27.3861 15.7317 27.3036 15.5764 27.0781C15.2732 26.6379 15.1811 26.0683 15.3925 25.9415C15.4953 25.8798 15.6201 25.7195 15.6698 25.5851C15.7195 25.4506 15.8928 25.3408 16.0549 25.3408C16.3492 25.3408 16.3536 25.4343 16.0918 26.1283C16.0586 26.216 16.2253 26.5069 16.4623 26.7751C16.8025 27.1603 16.9886 27.2579 17.3487 27.2399C17.7373 27.2205 17.815 27.156 17.8761 26.8025C17.9423 26.4188 17.9975 26.3846 18.6142 26.3453C19.1984 26.308 19.2807 26.3368 19.2807 26.578C19.2807 26.7293 19.2017 26.8849 19.1051 26.9237C18.9965 26.9672 19.0197 26.9982 19.1659 27.0051C19.2959 27.0111 19.4424 26.8905 19.4914 26.7369C19.6439 26.2593 20.0697 26.4116 20.4672 27.0859C20.671 27.4315 20.8895 27.7142 20.9527 27.7142C21.016 27.7142 21.1026 27.3322 21.1451 26.8655C21.2286 25.9524 21.2529 25.8942 21.5713 25.8477C21.8598 25.8057 22.2305 25.4825 22.2305 25.2731C22.2305 25.1647 22.0861 25.1193 21.8442 25.1519C19.7654 25.4312 18.4568 25.2986 18.6389 24.8267C18.6828 24.7129 18.7188 24.5936 18.7188 24.5615C18.7188 24.3879 19.2642 24.5384 19.3393 24.7328C19.4154 24.9298 19.5818 24.9494 20.5132 24.8713C21.11 24.8211 21.6195 24.7178 21.6452 24.6416C21.671 24.5655 21.8923 24.5055 22.1368 24.5084C22.5411 24.5133 22.6205 24.5927 23.0065 25.3797C23.2576 25.8917 23.5361 26.2657 23.6873 26.2947C23.883 26.3321 23.9235 26.2815 23.859 26.0796C23.7851 25.8485 23.8361 25.8227 24.2668 25.8727C24.5658 25.9073 24.759 26.0059 24.759 26.1238C24.759 26.2307 24.8308 26.3181 24.9184 26.3181C25.1069 26.3181 25.6633 26.8895 25.7872 27.2103C25.8493 27.371 26.0551 27.4349 26.5105 27.4349C27.129 27.4349 27.147 27.4227 27.147 27.001C27.147 26.5318 27.2322 26.5463 26.0934 26.8218C25.7438 26.9064 25.7423 26.9025 25.7423 25.9143C25.7423 25.3686 25.7084 24.9219 25.6671 24.9219C25.6257 24.9219 25.4384 25.0219 25.2508 25.1441C24.9256 25.3558 24.8924 25.3479 24.5359 24.9695C24.3303 24.7513 24.0446 24.3032 23.901 23.9734C23.6684 23.4393 23.609 23.3904 23.356 23.525C23.1998 23.608 22.7173 23.6802 22.2836 23.6854C21.6667 23.6927 21.4322 23.6322 21.2058 23.4071L20.9166 23.1195L20.5818 23.4785C20.278 23.8043 20.1693 23.8318 19.4016 23.7766C18.8899 23.7398 18.5085 23.6395 18.4359 23.5226C18.3338 23.3584 18.2589 23.3594 17.9396 23.5293C17.7329 23.6393 17.5146 23.8563 17.4546 24.0115C17.305 24.3981 16.5286 25.0617 16.2267 25.0608C15.9143 25.06 15.1023 24.4232 15.2388 24.2863C15.2949 24.23 15.4481 24.2716 15.5792 24.3784C15.7926 24.5524 15.8093 24.5405 15.7379 24.2652C15.6661 23.9881 15.6991 23.9657 16.0718 24.0397C16.379 24.1009 16.5535 24.0492 16.7508 23.8387C16.8968 23.683 16.9837 23.5233 16.9441 23.4838C16.8184 23.359 17.2693 22.633 17.7202 22.2344C18.2335 21.7807 18.7045 21.7433 19.0374 22.1297C19.3605 22.5048 19.7251 22.4814 20.1235 22.0599C20.305 21.8679 20.5372 21.7109 20.6396 21.7109C20.742 21.7109 20.8258 21.648 20.8258 21.5713C20.8258 21.4945 20.7251 21.4316 20.6019 21.4316C20.4789 21.4316 20.345 21.306 20.3047 21.1524C20.2642 20.9988 20.1753 20.8732 20.1071 20.8732C19.9566 20.8732 19.9396 19.9392 20.0884 19.8475C20.1463 19.8117 20.2154 19.1012 20.2418 18.2686C20.2683 17.436 20.3577 16.673 20.4405 16.573C20.751 16.1987 21.2964 16.4458 21.7659 17.1735C22.0135 17.5574 22.2826 17.9475 22.3638 18.0402C22.445 18.1329 22.5115 18.2692 22.5115 18.3429C22.5115 18.6129 23.4619 19.0582 24.0381 19.0582C24.6386 19.0582 24.8188 18.861 24.3527 18.714C24.2065 18.6679 24.0557 18.5223 24.0174 18.3905C23.9792 18.2587 23.9042 18.0454 23.8507 17.9166C23.7754 17.7351 23.814 17.6983 24.0225 17.7525C24.2831 17.8202 25.1804 17.2115 25.1804 16.9669C25.1804 16.7505 24.0528 16.4013 23.6644 16.4973C23.314 16.5842 23.3001 16.5722 23.488 16.3456C23.6449 16.1564 23.8149 16.1193 24.2255 16.1845C24.5479 16.2357 24.759 16.2134 24.759 16.1281C24.759 15.9432 25.6834 15.9456 26.0325 16.1313C26.1861 16.2131 26.3041 16.2201 26.3041 16.1473C26.3041 15.9361 25.6378 15.568 25.2555 15.568C25.0597 15.568 24.8995 15.5128 24.8995 15.4452C24.8995 15.3148 24.3636 15.0831 23.7638 14.9542C23.2425 14.8421 22.5675 15.0714 22.0253 15.5444C21.6313 15.8884 21.4346 15.9545 20.8077 15.9545C20.1658 15.9545 19.9839 15.8898 19.5214 15.4963C18.882 14.9524 18.1787 14.8244 17.3843 15.1072C17.0753 15.2172 16.6961 15.3447 16.5415 15.3905C16.387 15.4362 16.229 15.5106 16.1904 15.5557C16.1517 15.6009 15.9778 15.7168 15.8041 15.8134C15.5265 15.9678 15.488 15.9577 15.488 15.7307C15.488 15.4039 16.0052 14.4685 16.4973 13.9055C16.8862 13.4604 17.1144 13.3668 17.1985 13.6177C17.2769 13.8514 18.1824 13.4717 18.5995 13.0302C18.8044 12.8134 19.0441 12.6361 19.1323 12.6361C19.2206 12.6361 19.6077 12.929 19.9927 13.287C21.0198 14.2418 22.3603 14.3563 23.196 13.5606C23.4714 13.2983 23.73 13.1946 24.1086 13.1946C24.8132 13.1946 25.1804 12.9805 25.1804 12.5697C25.1804 12.3849 25.2422 12.1958 25.3176 12.1494C25.5077 12.0327 26.5514 12.3273 26.6858 12.5357C26.7463 12.6295 26.9697 12.7954 27.1821 12.9043C27.5303 13.0826 27.5684 13.1756 27.5684 13.8464C27.5684 14.3511 27.5119 14.5893 27.3928 14.5862C27.2963 14.5837 26.9014 14.2696 26.5154 13.8881C25.7071 13.0891 25.2555 12.9451 25.8053 13.6614C26.2034 14.1801 26.2499 14.3933 25.9881 14.4982C25.8916 14.5369 25.9826 14.5736 26.1905 14.5796C26.6355 14.5926 26.7066 14.6813 26.7525 15.2801C26.7715 15.5269 26.8364 15.7591 26.8968 15.7962C27.1555 15.9552 26.9794 16.3545 26.5851 16.5025C26.2992 16.6097 26.1637 16.7559 26.1637 16.9568C26.1637 17.2064 26.2064 17.2303 26.4353 17.1086C26.5848 17.0291 26.8538 16.9641 27.0332 16.9641C27.4449 16.9641 28.5754 17.9966 28.4681 18.2746C28.4207 18.397 28.5052 18.5107 28.6859 18.5676C28.8978 18.6345 29.0576 18.5692 29.2533 18.3359C29.403 18.1573 29.5276 17.9595 29.5303 17.8965C29.5463 17.503 30.6222 16.8266 31.2339 16.8254C32.2732 16.8235 32.4726 17.661 31.782 19.1289C31.55 19.6221 31.2919 20.342 31.2085 20.7287C31.125 21.1153 30.9989 21.4316 30.928 21.4316C30.8572 21.4316 30.7989 21.5415 30.7985 21.676C30.7972 22.1418 30.1783 22.7346 29.6934 22.7346C29.1609 22.7346 28.9527 22.5607 28.9239 22.0917C28.8899 21.5348 28.6042 21.802 28.2623 22.7108C28.0882 23.173 27.861 23.5838 27.7572 23.6233C27.6533 23.6629 27.5684 23.7718 27.5684 23.8655C27.5684 24.0784 26.9754 24.6427 26.7517 24.6427C26.66 24.6427 26.5851 24.7369 26.5851 24.8521C26.5851 24.9673 26.5219 25.0615 26.4446 25.0615C26.3674 25.0615 26.3041 25.2567 26.3041 25.4953C26.3041 25.8335 26.3532 25.9104 26.5264 25.8443C26.6486 25.7977 26.8296 25.7596 26.9289 25.7596C27.0281 25.7596 27.2433 25.3945 27.407 24.9482C27.8487 23.7439 28.6102 23.1761 29.1325 23.6614C29.4776 23.9822 29.9552 24.8186 29.9558 25.1034C29.9561 25.2415 30.0432 25.5242 30.1492 25.7317C30.5309 26.4775 30.5511 26.7077 30.2432 26.8049C30.0854 26.8546 29.9563 26.994 29.9563 27.1148C29.9563 27.2635 29.8059 27.1815 29.4904 26.8611C28.574 25.9305 28.1302 25.6849 28.1302 26.1086C28.1302 26.2238 28.1777 26.3185 28.2356 26.3189C28.2935 26.3194 28.4515 26.5129 28.5868 26.749C28.7359 27.0097 29.053 27.2642 29.3945 27.3975C29.9184 27.6021 30.0571 27.8249 29.9686 28.3206C29.957 28.3854 30.0231 28.4133 30.1152 28.3829C30.2127 28.3505 30.2881 28.0379 30.2953 27.6368C30.3065 27.0047 30.336 26.946 30.6459 26.9432C30.8584 26.9413 31.0361 26.8244 31.1239 26.6291C31.221 26.4127 31.3853 26.3181 31.6635 26.3181C32.0276 26.3181 32.0634 26.3622 32.0634 26.811C32.0634 27.3621 31.7657 27.579 31.3575 27.3256C31.2215 27.2412 31.0719 27.2103 31.025 27.2571C30.8629 27.4181 30.9402 28.0139 31.1503 28.2228C31.6078 28.6775 31.2429 29.3401 30.6021 29.2183C30.3591 29.1721 30.2835 29.207 30.3353 29.3415C30.3752 29.4447 30.4959 29.5291 30.6035 29.5291C30.8886 29.5291 30.8427 29.9047 30.5182 30.2272C30.1672 30.5761 30.1471 30.9627 30.4831 30.8994C30.6313 30.8715 30.7466 30.7012 30.7733 30.4702C30.7978 30.2598 30.8768 30.0876 30.9489 30.0876C31.0211 30.0876 31.0801 29.9382 31.0801 29.7556C31.0801 29.1369 31.799 28.906 32.0115 29.4565C32.1486 29.8117 31.9329 30.3721 31.6137 30.4895C31.4122 30.5635 31.3676 30.6336 31.4787 30.7019C31.9194 30.9726 32.4848 30.3465 32.4848 29.588C32.4848 29.385 32.5868 29.2037 32.7306 29.1511C33.0948 29.0174 33.1826 28.8262 33.185 28.1606C33.1869 27.6196 33.229 27.5455 33.6085 27.414C33.8403 27.3337 34.0299 27.1799 34.0299 27.0722C34.0299 26.9646 34.0844 26.8765 34.151 26.8765C34.2178 26.8765 34.2534 26.7059 34.2304 26.4973C34.1921 26.15 33.9528 25.8702 33.5535 25.7054C33.4494 25.6626 33.4623 25.5964 33.5924 25.5059C33.8617 25.3188 33.6852 24.6222 33.3964 24.7323C33.2812 24.7763 33.1871 24.7427 33.1871 24.6576C33.1871 24.5726 33.2503 24.5031 33.3276 24.5031C33.4049 24.5031 33.4681 24.4403 33.4681 24.3635C33.4681 24.2867 33.3475 24.2239 33.2003 24.2239C33.0017 24.2239 32.9514 24.1517 33.0059 23.9447C33.0464 23.7911 33.0108 23.6654 32.927 23.6654C32.8431 23.6654 32.811 23.5712 32.8553 23.456C32.9659 23.1699 32.808 23.1933 32.3827 23.5258C31.8434 23.9473 31.5998 23.8944 31.7135 23.3805C31.7677 23.1353 31.742 22.8777 31.6526 22.7708C31.5376 22.633 31.5524 22.5407 31.7105 22.4103C31.8273 22.314 31.9229 22.1171 31.9229 21.9731C31.9229 21.8288 32.0493 21.5852 32.2038 21.4316C32.5399 21.0977 32.5542 21.0128 32.2741 21.0128C31.9361 21.0128 32.0252 20.4971 32.3794 20.4027C32.7889 20.2937 33.3859 20.2921 33.6673 20.3995C33.9457 20.5057 33.9528 20.8761 33.6833 21.2305C33.5698 21.3794 33.4759 21.5643 33.4747 21.6411C33.4734 21.7178 33.5264 21.6959 33.5924 21.5925C33.6584 21.4889 33.8313 21.4275 33.9766 21.4558C34.3957 21.5379 34.2905 22.7577 33.8223 23.2434C33.3452 23.7384 33.3756 23.8751 33.8954 23.5699C34.336 23.3112 34.4044 23.3387 34.6517 23.8748C34.6871 23.9516 34.789 23.8993 34.8782 23.7584C34.9944 23.575 35.1382 23.5268 35.3853 23.5884C35.697 23.6661 35.7156 23.6471 35.5775 23.3907C35.4935 23.2346 35.3651 23.107 35.2921 23.107C35.2192 23.107 35.026 22.8472 34.8631 22.5295C34.5497 21.9192 34.63 21.7178 35.1888 21.713C35.5788 21.7096 35.4764 21.4836 34.943 21.171C34.2626 20.772 34.2824 20.4612 34.9802 20.588C35.6275 20.7057 36.2374 21.0864 36.3516 21.4441C36.4584 21.7783 36.7006 21.7942 36.6938 21.4665C36.684 20.9892 36.1014 20.4824 35.5049 20.432C35.0576 20.3942 34.7906 20.2421 34.1957 19.6865C33.7847 19.3026 33.4025 18.9718 33.3466 18.9514C33.2905 18.9311 33.1052 19.0434 32.935 19.2012L32.6253 19.488L32.6283 19.1684C32.6323 18.76 33.13 17.6621 33.3112 17.6621C33.478 17.6621 34.0299 18.4086 34.0299 18.6342C34.0299 18.7229 34.0888 18.7593 34.1609 18.7151C34.2369 18.6684 34.2078 18.4747 34.0915 18.2531C33.9813 18.0433 33.8909 17.7617 33.8903 17.6272C33.8893 17.3248 34.3879 17.2963 34.5022 17.5923C34.5466 17.7075 34.658 17.8017 34.7497 17.8017C35.0698 17.8017 34.4245 17.2593 34.053 17.2162C33.5344 17.1562 33.2959 16.4947 33.6868 16.2008C33.9486 16.004 33.9443 15.9954 33.5797 15.9913C33.2569 15.9875 33.1857 15.9122 33.1062 15.491C32.9978 14.9164 33.2815 14.6025 33.9163 14.5951C34.1242 14.5926 34.3335 14.5277 34.3814 14.4506C34.4868 14.281 35.0132 14.5264 35.0132 14.7452C35.0132 14.8248 35.1081 14.9841 35.2239 15.0993C35.5202 15.3937 35.4859 16.025 35.1529 16.4066C34.9978 16.5843 34.901 16.7594 34.9377 16.796C35.0594 16.9169 35.7258 16.3964 35.8801 16.0599C36.0673 15.6516 35.9139 14.7435 35.6401 14.6391C35.4938 14.5834 35.4765 14.4946 35.576 14.31C35.75 13.9867 35.539 13.5876 34.7933 12.829C34.1567 12.1815 33.6078 11.8661 32.6 11.5686C31.7912 11.3299 31.6741 11.1233 31.9079 10.3461C32.0024 10.0315 32.0736 9.53924 32.066 9.25234C32.0328 7.99569 31.1628 6.70987 30.4067 6.79964C29.9878 6.84934 29.8052 7.19125 30.1975 7.19125C30.5015 7.19125 30.7992 7.44464 30.7992 7.70348C30.7992 7.80079 30.7104 7.84673 30.6018 7.80526C30.4544 7.749 30.4099 7.84742 30.4262 8.19352C30.4471 8.63777 30.4247 8.65913 29.8879 8.70255C29.5799 8.7274 29.2377 8.82163 29.1276 8.91196C28.9732 9.03845 28.9138 9.03608 28.8683 8.90149C28.7854 8.65689 28.3263 8.68426 27.9042 8.95915C27.7081 9.0869 27.3228 9.54245 27.0481 9.97134C26.7735 10.4004 26.3491 10.9455 26.1051 11.1829C25.7329 11.5452 25.6328 11.5836 25.4811 11.4223C25.2678 11.1953 25.3978 10.4023 25.6486 10.4023C25.817 10.4023 26.5851 9.66238 26.5851 9.50015C26.5851 9.45086 26.3954 9.34476 26.1637 9.26448C25.8079 9.14121 25.7423 9.04529 25.7423 8.64796C25.7423 8.28692 25.6932 8.19603 25.5316 8.2576C25.4157 8.30186 25.3209 8.43016 25.3209 8.54269C25.3209 8.775 24.8808 8.74178 24.801 8.50332C24.7726 8.41885 24.9714 8.10473 25.2426 7.80526C25.8008 7.18915 25.8549 6.91705 25.4853 6.58464C25.0613 6.20322 24.369 6.29061 23.9051 6.78414C23.532 7.1812 23.4646 7.20298 23.0399 7.06378C22.3879 6.8499 22.1634 6.45159 22.398 5.92483C22.4981 5.69992 22.6594 5.51591 22.7565 5.51591C22.8535 5.51591 22.9329 5.45085 22.9329 5.37141C22.9329 5.20765 22.4443 5.42474 22.3036 5.65105C22.1839 5.84344 21.5507 5.52722 21.4549 5.22719C21.3519 4.90441 20.5908 4.63691 20.2834 4.81548C20.102 4.9206 20.1481 4.94992 20.5004 4.95327C21.0042 4.95802 21.2541 5.38076 20.9607 5.73203C20.5935 6.1718 19.8426 5.92288 19.8426 5.36136C19.8426 5.10922 19.7691 4.95746 19.6469 4.95746C19.5393 4.95746 19.4148 4.86322 19.3703 4.74804C19.2598 4.46142 18.0396 4.45584 17.9294 4.74134ZM31.642 4.62854C31.642 4.67796 32.1635 5.22077 32.8008 5.83478C33.4382 6.44879 33.8492 6.913 33.7139 6.86623C33.3522 6.74114 33.4049 7.11739 33.7841 7.36772C34.5137 7.84896 35.2904 8.77738 35.1118 8.95468C35.0763 8.99001 35.3245 9.31446 35.6635 9.67578C36.0024 10.037 36.3192 10.4552 36.3674 10.6052C36.4665 10.9139 36.76 11.24 36.9385 11.24C37.3231 11.24 37.7455 12.1669 37.702 12.9153C37.6739 13.3996 38.0269 14.6186 38.7247 16.4468C38.9239 16.9687 39.0868 17.5394 39.0868 17.715C39.0868 17.8907 39.1269 18.0743 39.1758 18.1228C39.2248 18.1714 39.2648 18.5429 39.2648 18.9482C39.2648 19.3537 39.3256 19.8181 39.4002 19.9807C39.4979 20.1937 39.473 20.3963 39.3112 20.7073C39.1878 20.9445 39.0868 21.2901 39.0868 21.4753C39.0868 22.0281 38.5602 23.9608 38.1215 25.0183C37.8961 25.5615 37.6685 26.2018 37.6156 26.4412C37.5626 26.6806 37.4612 26.8765 37.3901 26.8765C37.3189 26.8765 37.2593 27.0493 37.2577 27.2604C37.256 27.4715 37.131 27.8014 36.9798 27.9934C36.8287 28.1854 36.7036 28.421 36.702 28.5169C36.7003 28.613 36.6357 28.6914 36.5584 28.6914C36.4811 28.6914 36.4179 28.7744 36.4179 28.8756C36.4179 28.977 36.1651 29.3966 35.856 29.8083C35.547 30.2201 35.2942 30.603 35.2942 30.6594C35.2942 30.906 32.8199 33.4785 32.4497 33.6168C32.3144 33.6674 32.2038 33.7614 32.2038 33.8258C32.2038 33.9974 30.4851 35.2229 29.9084 35.4623C29.6364 35.5753 29.3787 35.724 29.336 35.7928C29.2932 35.8615 28.9329 36.0234 28.5352 36.1527C28.1375 36.282 27.6496 36.4938 27.4508 36.6232C26.8299 37.0275 26.1326 37.234 25.0004 37.349C24.3992 37.4101 23.8303 37.5208 23.7362 37.5949C23.642 37.6692 23.3202 37.7737 23.021 37.8274C22.7218 37.881 22.3741 37.9819 22.2484 38.0514C21.4776 38.4782 20.8465 38.6039 19.4743 38.6039C18.596 38.6039 18.0165 38.5483 18.0165 38.4643C18.0165 38.3875 18.2588 38.3247 18.5549 38.3247C19.1596 38.3247 19.2956 38.2466 19.1859 37.9624C19.1087 37.7624 18.583 37.7703 16.1904 38.0069C15.3443 38.0907 15.3134 38.1052 15.769 38.2039C16.0514 38.2652 15.6945 38.2808 14.9298 38.2405C14.1979 38.2018 13.5658 38.1185 13.5251 38.0549C13.4845 37.9915 13.1194 37.8947 12.7137 37.8398C12.2214 37.7732 11.9763 37.6748 11.9763 37.5437C11.9763 37.4357 12.0749 37.3474 12.1953 37.3474C12.3157 37.3474 12.3745 37.2833 12.3258 37.2051C12.2095 37.018 10.9184 36.3701 10.6619 36.3701C10.5519 36.3701 10.0916 36.1008 9.63888 35.7714C9.18614 35.4422 8.56288 35.024 8.25385 34.842C7.44629 34.3665 6.77892 33.6005 6.77892 33.1491C6.77892 32.7363 6.30512 32.0487 6.13614 32.2161C6.07826 32.2733 6.102 32.4752 6.18895 32.6648C6.28798 32.8809 6.29655 33.0404 6.21171 33.0924C5.98977 33.2288 6.06028 34.039 6.32928 34.4447C6.46736 34.6526 6.86194 35.0241 7.20637 35.2701C7.55066 35.5161 7.85351 35.77 7.87922 35.8344C7.90507 35.8986 7.9878 35.9513 8.06323 35.9513C8.13867 35.9513 8.47383 36.1554 8.808 36.405C9.14218 36.6545 9.53353 36.9365 9.67751 37.0314C10.1797 37.3626 12.1569 38.3247 12.3352 38.3247C12.4339 38.3247 12.5358 38.3742 12.5616 38.435C12.6791 38.7114 14.2915 39.1623 15.1628 39.1623C15.6833 39.1623 16.2373 39.2476 16.4497 39.3604C17.3952 39.8629 18.0461 40 19.4873 40C21.1675 40 22.4862 39.7794 22.244 39.5387C22.1593 39.4545 22.0901 39.3378 22.0901 39.2795C22.0901 39.159 23.1245 38.8569 23.391 38.8993C23.4866 38.9147 23.6764 38.8788 23.8126 38.8197C23.9559 38.7576 24.1444 38.7817 24.2602 38.8772C24.3947 38.9882 24.5434 38.9986 24.7149 38.9091C24.8551 38.8358 25.2541 38.7301 25.6018 38.6741C25.9495 38.6181 26.2971 38.5251 26.3744 38.4675C26.4516 38.4098 26.6097 38.3552 26.7256 38.346C27.1899 38.3092 27.9275 38.1441 28.06 38.0472C28.1373 37.9907 28.6746 37.804 29.254 37.6323C30.2408 37.3397 31.7143 36.5036 32.4438 35.8221C32.6144 35.6628 32.7764 35.5324 32.8037 35.5324C32.831 35.5324 33.3088 35.0861 33.8652 34.5406C34.9214 33.5054 35.8643 32.3567 36.4241 31.4235C36.6949 30.9717 36.7111 30.8908 36.5154 30.9653C36.3511 31.028 36.2723 30.9818 36.2609 30.8162C36.229 30.3567 36.3048 30.1718 36.8566 29.3644C37.2673 28.7632 37.497 28.5518 37.74 28.5518C38.0298 28.5518 38.1067 28.4205 38.3931 27.4349C38.5717 26.8207 38.761 26.3181 38.8136 26.3181C38.8663 26.3181 38.9445 26.0577 38.9875 25.7395C39.0304 25.4213 39.1177 25.1228 39.1815 25.0762C39.2453 25.0296 39.4235 24.7717 39.5775 24.503C39.8211 24.078 39.8621 23.7151 39.8929 21.7109C39.9436 18.3954 39.926 17.7766 39.773 17.4925C39.6726 17.306 39.6909 17.2184 39.8427 17.1605C39.9915 17.1038 40.0294 16.9391 39.9788 16.5692C39.8594 15.6957 39.3283 14.1474 38.7924 13.1113C38.5106 12.5666 38.2019 11.8851 38.1062 11.5971C38.0106 11.3091 37.8448 10.9067 37.7379 10.7029C37.6309 10.4992 37.5431 10.2541 37.5425 10.158C37.5421 10.0621 37.4928 9.98348 37.4331 9.98348C37.3734 9.98348 37.2092 9.77058 37.0682 9.5102C36.6394 8.71888 33.2439 5.3763 32.8688 5.3763C32.8216 5.3763 32.5754 5.18782 32.3217 4.95746C31.8768 4.5537 31.642 4.43992 31.642 4.62854ZM33.0524 4.6848C33.0492 4.80361 33.3072 5.14915 33.6257 5.45266C34.2561 6.05341 34.1666 5.74194 33.4835 4.95746C33.2113 4.64487 33.0561 4.54658 33.0524 4.6848ZM19.3137 5.15487C19.4886 5.41176 19.4348 5.60023 19.0767 5.98417C18.5442 6.55518 17.5951 6.43553 17.5951 5.79723C17.5951 5.67562 17.7645 5.38118 17.9717 5.14315C18.3148 4.74874 18.3863 4.72333 18.7793 4.8568C19.0165 4.93736 19.2569 5.07139 19.3137 5.15487ZM23.6282 5.68023C23.785 5.84749 23.9485 5.94912 23.9916 5.90626C24.0877 5.81077 23.6677 5.3763 23.4793 5.3763C23.4044 5.3763 23.4716 5.51312 23.6282 5.68023ZM17.4039 5.72561C17.5414 6.08189 17.3214 6.63881 16.9938 6.76404C16.7472 6.85827 16.616 6.80871 16.3659 6.52684L16.0499 6.17055V6.52418C16.0499 6.71866 15.9551 6.956 15.8392 7.05164C15.4122 7.40388 14.9957 6.62191 15.3307 6.09669C15.398 5.99115 15.6278 5.92832 15.8586 5.95233C16.0833 5.97579 16.422 5.88714 16.6112 5.75548C17.035 5.46034 17.2977 5.45043 17.4039 5.72561ZM20.3065 6.24887L20.524 6.563L20.7531 6.24887C20.8976 6.05076 21.1291 5.93474 21.3797 5.93474C21.7202 5.93474 21.7872 5.9998 21.8469 6.38848C21.9211 6.8707 21.7588 7.19125 21.4408 7.19125C21.3343 7.19125 21.2473 7.25407 21.2473 7.33086C21.2473 7.56052 20.9798 7.48932 20.723 7.19125C20.437 6.85925 20.264 6.83301 20.264 7.12144C20.264 7.34133 19.8733 7.39131 19.3158 7.24291C19.0807 7.18022 18.9997 7.05555 18.9997 6.75608C18.9997 6.53479 19.063 6.35358 19.1402 6.35358C19.2175 6.35358 19.2807 6.25934 19.2807 6.14416C19.2807 5.80155 20.0516 5.8803 20.3065 6.24887ZM26.4824 6.31072C26.6191 6.34618 26.8087 6.34381 26.9038 6.30555C26.9989 6.2673 26.8871 6.2384 26.6553 6.24119C26.4235 6.24398 26.3457 6.27526 26.4824 6.31072ZM25.1033 6.86484C25.1708 7.13247 25.1235 7.30978 24.9341 7.49812C24.6769 7.7536 24.6651 7.75305 24.411 7.4741C24.1839 7.22448 24.1746 7.14476 24.3383 6.84082C24.5869 6.37927 24.9839 6.39169 25.1033 6.86484ZM18.1288 6.93995C18.3339 7.14378 18.3474 7.33086 18.1569 7.33086C18.0797 7.33086 17.89 7.45651 17.7355 7.61008C17.3283 8.01482 17.0332 7.96791 17.0332 7.49839C17.0332 7.03335 17.2603 6.77241 17.6653 6.77241C17.8275 6.77241 18.0361 6.8478 18.1288 6.93995ZM16.7177 7.50538C16.7976 7.60478 16.8093 7.8001 16.7448 7.95911C16.5307 8.48685 16.5875 8.76579 16.8927 8.68649C17.126 8.6259 17.1736 8.6823 17.1736 9.01933C17.1736 9.69114 17.4053 9.47683 17.5723 8.65061C17.6584 8.22451 17.8215 7.7839 17.9347 7.67137C18.2315 7.37637 18.9576 7.26189 19.2102 7.47019C19.5398 7.74216 19.4762 8.16783 19.1051 8.17272C18.8229 8.17663 18.8153 8.19226 19.0349 8.31931C19.4431 8.55567 19.338 8.95985 18.8428 9.05828C18.5025 9.12599 18.4203 9.20361 18.4738 9.40675C18.5155 9.56563 18.4351 9.74391 18.2687 9.86076C18.1182 9.96659 17.9082 10.2575 17.8021 10.507C17.6909 10.7692 17.5073 10.9608 17.3674 10.9608C17.0974 10.9608 15.6272 9.50769 15.6306 9.24424C15.6337 9.00606 15.7947 8.79832 16.1201 8.61264C16.3959 8.45515 16.3953 8.45055 16.085 8.36385C15.8537 8.29921 15.769 8.17076 15.769 7.8847C15.769 7.6697 15.848 7.4621 15.9445 7.42328C16.2637 7.29526 16.5754 7.32835 16.7177 7.50538ZM22.5115 7.40555C22.5115 7.44674 22.4094 7.63521 22.2846 7.82439C22.0738 8.14424 22.0749 8.16853 22.2995 8.16853C22.4325 8.16853 22.6682 8.00798 22.8236 7.81182C23.0385 7.54028 23.2109 7.46531 23.5462 7.4977C23.9117 7.53302 23.9941 7.60687 24.0316 7.93259C24.088 8.42053 23.8678 8.69752 23.3792 8.75364C23.0923 8.78659 23.0138 8.8631 23.0479 9.07601C23.0726 9.22958 23.1675 9.41806 23.2586 9.49484C23.4775 9.67899 23.9162 10.6296 23.9162 10.9196C23.9162 11.0454 24.0163 11.2583 24.1388 11.3927C24.2612 11.5272 24.396 11.8934 24.4382 12.2064C24.4998 12.6626 24.4713 12.7757 24.295 12.7757C23.8829 12.7757 23.3509 12.5026 22.9308 12.0756C22.5792 11.7182 22.5115 11.5372 22.5115 10.956C22.5115 10.4455 22.4581 10.2627 22.3091 10.2627C22.1977 10.2627 22.0676 10.3255 22.0198 10.4023C21.874 10.6369 21.6687 10.558 21.6687 10.2676C21.6687 9.91829 22.4713 8.99964 22.7001 9.0869C22.7985 9.12445 22.8726 9.04096 22.8726 8.89256C22.8726 8.57089 22.5625 8.25272 22.4404 8.44915C22.3039 8.66876 21.5282 8.61808 21.5282 8.38954C21.5282 8.28078 21.4499 8.16588 21.3543 8.13419C21.2169 8.08867 21.2162 7.9982 21.3512 7.70376C21.4894 7.40234 21.6171 7.33086 22.0169 7.33086C22.2888 7.33086 22.5115 7.36451 22.5115 7.40555ZM20.5226 8.22745C20.5488 8.36231 20.4224 8.6319 20.2416 8.82652L19.9128 9.18044L20.2288 9.08397C20.4685 9.01067 20.5449 9.04334 20.5449 9.21869C20.5449 9.47669 20.0137 9.97162 19.7289 9.97888C19.6278 9.98139 19.5842 10.0464 19.6321 10.1235C19.69 10.2166 19.8104 10.215 19.9916 10.1186C20.2061 10.0044 20.264 10.0192 20.264 10.188C20.264 10.3058 20.2081 10.4023 20.1399 10.4023C20.0717 10.4023 19.9827 10.528 19.9423 10.6815C19.8653 10.9743 20.0416 11.0659 20.1979 10.8143C20.3284 10.6046 20.6854 10.9288 20.6854 11.257C20.6854 11.4012 20.7486 11.5192 20.8258 11.5192C20.9031 11.5192 20.9663 11.2993 20.9663 11.0306C20.9663 10.4899 21.0176 10.4635 21.5774 10.7164C21.856 10.8424 21.9462 10.9687 21.9013 11.1702C21.867 11.3238 21.7942 11.646 21.7396 11.8861C21.6538 12.2639 21.708 12.3921 22.1408 12.8349C22.4911 13.1936 22.5847 13.3685 22.4529 13.4188C22.2666 13.4898 20.8206 13.0841 20.6854 12.9229C20.6467 12.8768 20.4495 12.7345 20.2471 12.6066C20.0448 12.4789 19.7562 12.1387 19.6057 11.8506C19.4553 11.5626 19.2689 11.3059 19.1913 11.2802C19.1138 11.2545 18.6309 11.5491 18.1182 11.9348C17.6056 12.3204 17.1555 12.6361 17.1182 12.6361C17.0807 12.6361 17.0305 12.4053 17.0065 12.1233C16.9181 11.0843 16.5377 11.4759 16.1696 12.9851C16.0059 13.6557 15.7778 14.0312 15.5331 14.0331C15.4698 14.0336 15.2555 14.1181 15.0572 14.221C14.4558 14.5329 13.9429 14.6207 13.9429 14.4118C13.9429 14.3106 13.9979 14.1681 14.0652 14.095C14.1325 14.022 14.2284 13.7897 14.2786 13.5785C14.3548 13.2565 14.3238 13.1946 14.086 13.1946C13.8358 13.1946 13.8024 13.1039 13.8024 12.4267C13.8024 11.8372 13.8513 11.6588 14.0131 11.6588C14.129 11.6588 14.2238 11.596 14.2238 11.5192C14.2238 11.4424 14.1144 11.3796 13.9806 11.3796C13.7933 11.3796 13.8407 11.2771 14.1878 10.932C14.5783 10.544 14.7368 10.4836 15.3792 10.4783C15.9469 10.4735 16.1201 10.5211 16.1201 10.6815C16.1201 10.8157 15.9562 10.9067 15.6636 10.9347C15.2156 10.9777 15.0044 11.24 15.4178 11.24C15.5373 11.24 15.6285 11.3652 15.6285 11.5291C15.6285 11.6883 15.5337 11.9126 15.4178 12.0278C15.1807 12.2635 15.1325 12.7757 15.3475 12.7757C15.4248 12.7757 15.488 12.6794 15.488 12.5618C15.488 12.4441 15.6253 12.2974 15.793 12.2357C15.995 12.1614 16.0424 12.0895 15.9334 12.0227C15.6762 11.8646 15.7385 11.5663 16.1123 11.1654C16.478 10.7731 16.9455 10.7883 17.2502 11.2024C17.472 11.5039 18.2145 11.3783 18.2665 11.0306C18.3733 10.3176 18.4585 10.1354 18.725 10.0513C18.9184 9.99032 18.9861 9.88157 18.9334 9.71641C18.8869 9.57107 18.97 9.36863 19.1382 9.21743C19.2939 9.0774 19.4212 8.85221 19.4212 8.71693C19.4212 8.45194 20.1033 7.87186 20.3342 7.94055C20.4115 7.96344 20.4962 8.09258 20.5226 8.22745ZM21.1475 8.30814C21.1953 8.48964 21.1517 8.58737 21.0233 8.58737C20.9148 8.58737 20.8258 8.46172 20.8258 8.30814C20.8258 8.15457 20.8818 8.02892 20.9499 8.02892C21.0181 8.02892 21.1071 8.15457 21.1475 8.30814ZM21.222 9.1218C21.2517 9.32326 21.1928 9.42504 21.0464 9.42504C20.903 9.42504 20.8258 9.29897 20.8258 9.06442C20.8258 8.62702 21.1557 8.6749 21.222 9.1218ZM24.759 8.85165C24.759 8.9202 24.6674 9.01123 24.5554 9.05395C24.4193 9.10588 24.3777 9.06456 24.43 8.92927C24.5153 8.70841 24.759 8.65089 24.759 8.85165ZM30.2992 9.3597C30.5692 9.56255 30.5692 9.56674 30.2992 9.7696C30.1493 9.8824 29.9377 9.97664 29.8291 9.97902C29.5179 9.986 28.6878 10.675 28.5469 11.0431C28.4116 11.3965 28.497 11.7984 28.7071 11.7984C28.7761 11.7984 28.8326 11.7249 28.8326 11.635C28.8326 11.545 28.9372 11.3566 29.0651 11.2161C29.3652 10.8864 30.5182 10.8501 30.5182 11.1702C30.5182 11.2854 30.5764 11.3796 30.6475 11.3796C30.7184 11.3796 30.6753 11.6361 30.5514 11.9494C30.3775 12.3896 30.1961 12.5761 29.7549 12.7696C29.16 13.0304 27.9898 13.1295 27.9898 12.919C27.9898 12.8524 27.8159 12.7598 27.6035 12.7133C27.2024 12.6256 26.7256 11.9802 26.7256 11.5255C26.7256 11.1438 27.4249 9.98348 27.655 9.98348C27.7667 9.98348 27.8938 9.89092 27.9375 9.77783C27.9812 9.66475 28.2328 9.53198 28.4966 9.48284C28.7604 9.43369 29.0108 9.33764 29.0531 9.26965C29.1746 9.07419 29.9988 9.13381 30.2992 9.3597ZM11.0242 10.2976C12.1505 11.0995 12.5382 11.6782 12.5382 12.5572C12.5382 13.3328 12.371 13.6134 11.9093 13.6134C11.4113 13.6134 10.993 13.2212 10.993 12.7545C10.993 12.3493 10.6184 11.5011 10.396 11.4029C10.3381 11.3772 10.2907 11.2729 10.2907 11.171C10.2907 11.069 10.1141 10.8379 9.89818 10.6574C9.21635 10.0872 9.22239 9.98348 9.93681 9.98348C10.3825 9.98348 10.7198 10.0809 11.0242 10.2976ZM22.985 10.6815C23.0641 11.0655 23.1852 11.3796 23.2541 11.3796C23.3231 11.3796 23.4981 11.521 23.6431 11.6937C23.7882 11.8664 23.9089 11.9389 23.9115 11.8547C23.9141 11.7705 23.7962 11.5642 23.6497 11.3961C23.4978 11.2223 23.414 10.9733 23.4549 10.8181C23.4998 10.6471 23.4421 10.513 23.2999 10.4589C23.1753 10.4114 23.0734 10.2849 23.0734 10.178C23.0734 10.071 23.0211 9.98348 22.9572 9.98348C22.8934 9.98348 22.9058 10.2976 22.985 10.6815ZM37.0453 10.9398C36.966 11.0226 36.6989 10.8128 36.6989 10.6679C36.6989 10.5925 36.7874 10.6119 36.8954 10.711C37.0035 10.81 37.071 10.913 37.0453 10.9398ZM4.01042 10.8931C3.91686 10.994 3.79662 11.2546 3.74296 11.4723C3.6893 11.6901 3.60755 11.8997 3.56148 11.938C3.39881 12.0735 2.84579 13.2979 2.84579 13.5226C2.84579 13.7293 2.87163 13.7283 3.12672 13.5112C3.28124 13.3797 3.40766 13.1362 3.40766 12.9701C3.40766 12.8039 3.50206 12.4881 3.61752 12.2681C3.73285 12.0482 3.82767 11.7584 3.82823 11.6239C3.82865 11.4895 3.88807 11.3796 3.96013 11.3796C4.08978 11.3796 4.32057 10.842 4.22814 10.7548C4.20188 10.73 4.10383 10.7923 4.01042 10.8931ZM6.69886 11.564C6.58648 11.8554 6.72695 12.0455 6.91588 11.8578C6.99567 11.7785 6.99778 11.6453 6.92108 11.522C6.81334 11.3486 6.77963 11.355 6.69886 11.564ZM7.76221 11.7902C7.76221 11.8715 7.66739 11.938 7.5515 11.938C7.43562 11.938 7.3408 12.0303 7.3408 12.1431C7.3408 12.2558 7.26172 12.3179 7.16493 12.2811C7.06815 12.2442 6.90858 12.3419 6.81039 12.4983C6.64337 12.7641 6.65714 12.7767 7.02137 12.6903L7.41104 12.5979L6.99651 12.9596C6.57847 13.3245 6.58479 13.342 7.19162 13.5063C7.30259 13.5365 7.51681 13.4385 7.66753 13.2887C7.98176 12.9763 8.15861 11.8858 7.91883 11.7385C7.83272 11.6856 7.76221 11.7089 7.76221 11.7902ZM34.6158 12.8672C34.7572 12.9942 34.8728 13.1796 34.8728 13.279C34.8728 13.3786 34.9593 13.5101 35.0651 13.5715C35.1708 13.6329 35.297 13.8105 35.3454 13.966C35.4258 14.2238 35.3822 14.244 34.858 14.1943C34.5414 14.1643 34.1465 14.2049 33.9806 14.2845C33.4851 14.5223 32.9062 14.6102 32.9062 14.4478C32.9062 14.3052 32.7881 14.1375 32.3515 13.6606C32.1711 13.4636 32.1995 13.3924 32.5996 13.0371C32.9597 12.7172 33.1833 12.6361 33.705 12.6361C34.1165 12.6361 34.4543 12.7218 34.6158 12.8672ZM14.9964 13.1946C14.9486 13.2713 14.9766 13.3342 15.0583 13.3342C15.1401 13.3342 15.2071 13.2713 15.2071 13.1946C15.2071 13.1178 15.1793 13.0549 15.1451 13.0549C15.111 13.0549 15.0441 13.1178 14.9964 13.1946ZM31.8178 13.4794C32.1163 13.7978 32.3602 14.3888 32.2416 14.5065C32.1951 14.5528 31.9621 14.5916 31.7239 14.5928C31.3926 14.5944 31.3404 14.6268 31.5015 14.7303C31.6174 14.8047 31.9103 14.8665 32.1523 14.8678C32.4497 14.8692 32.6154 14.9492 32.6632 15.1142C32.7021 15.2487 32.7794 15.4684 32.8351 15.6029C32.9121 15.7888 32.8674 15.8472 32.6486 15.8472C32.1951 15.8472 32.1659 16.084 32.6085 16.1719C32.9221 16.2343 33.0283 16.3494 33.0996 16.7037C33.2248 17.3257 32.9953 17.5148 32.583 17.1298C32.4032 16.9618 32.1909 16.8245 32.1113 16.8245C31.816 16.8245 31.209 16.1792 31.2949 15.9566C31.3616 15.7838 31.2492 15.7133 30.7809 15.6347C29.5233 15.4235 28.9559 14.1762 29.756 13.3809C30.0839 13.0551 30.1849 13.0306 30.8428 13.1173C31.2761 13.1744 31.6687 13.3202 31.8178 13.4794ZM13.0287 14.0375C12.9784 14.265 12.8771 14.4511 12.8035 14.4511C12.5602 14.4511 12.5084 14.0463 12.6973 13.622C12.8449 13.2903 12.9079 13.2475 13.0017 13.414C13.0667 13.5295 13.0788 13.8101 13.0287 14.0375ZM8.9562 14.1718C8.56962 14.337 8.43211 14.337 8.53479 14.1718C8.58255 14.095 8.7601 14.0367 8.92937 14.042C9.22604 14.0515 9.22702 14.0561 8.9562 14.1718ZM4.98794 14.5435C4.78833 14.6236 4.74661 15.0095 4.93765 15.0095C5.00648 15.0095 5.10622 15.1822 5.15931 15.3934C5.21227 15.6047 5.35667 15.8888 5.48015 16.025C5.7851 16.3612 5.53001 16.6379 5.11759 16.4186C4.62174 16.1547 4.44152 16.2547 4.88259 16.5489C5.13038 16.7142 5.43056 16.7997 5.61148 16.7569C5.96603 16.6727 6.11071 16.8229 5.9399 17.0977C5.78567 17.3455 5.91223 17.6621 6.16535 17.6621C6.27492 17.6621 6.39938 17.8352 6.44194 18.0468C6.4845 18.2584 6.70251 18.651 6.92628 18.9193C7.28784 19.3528 7.33364 19.3735 7.33701 19.1047C7.33911 18.9385 7.26635 18.7776 7.17547 18.7475C7.07854 18.7154 7.05677 18.6178 7.12279 18.5115C7.21438 18.3642 7.25806 18.3658 7.35625 18.5198C7.45205 18.6701 7.47748 18.6619 7.47916 18.48C7.48029 18.354 7.33406 18.2141 7.15412 18.1692C6.97432 18.1244 6.75308 17.9261 6.66248 17.7287C6.45247 17.2705 6.45514 17.2433 6.70869 17.2433C7.08599 17.2433 6.93049 17.0012 6.49799 16.9152C6.01126 16.8185 5.94931 16.4968 6.29093 15.8402C6.48296 15.4711 6.48296 15.4283 6.29093 15.4283C6.17027 15.4283 6.07658 15.5504 6.07658 15.7076C6.07658 15.8611 5.98907 15.9868 5.88203 15.9868C5.6046 15.9868 5.18699 15.2972 5.18699 14.8393C5.18699 14.6257 5.18165 14.4561 5.17519 14.4621C5.16887 14.4681 5.08458 14.5048 4.98794 14.5435ZM4.32071 14.7303C4.36847 14.8071 4.46694 14.8699 4.5397 14.8699C4.61247 14.8699 4.67189 14.8071 4.67189 14.7303C4.67189 14.6535 4.57328 14.5907 4.45289 14.5907C4.33251 14.5907 4.27295 14.6535 4.32071 14.7303ZM3.08206 15.7984C2.89326 15.9861 3.46371 16.246 3.74072 16.0988C3.95704 15.9836 3.9708 15.9336 3.81292 15.8343C3.58227 15.6891 3.21044 15.6708 3.08206 15.7984ZM17.8553 16.311C17.9806 16.461 17.8374 16.4937 17.0903 16.4855C16.2439 16.4763 16.2026 16.4622 16.5671 16.3072C17.0958 16.0826 17.6658 16.0842 17.8553 16.311ZM11.226 17.0092C11.5118 17.3357 11.776 18.2224 11.5865 18.2185C11.3504 18.2135 11.1586 17.9884 11.1125 17.6621C11.0766 17.408 10.9656 17.3018 10.7048 17.2716C10.2578 17.2198 9.73313 17.7223 9.97895 17.9666C10.0978 18.0847 10.1906 18.0818 10.3439 17.9553C10.6132 17.7333 11.1335 18.0335 11.1335 18.4109C11.1335 18.6275 11.0968 18.6435 10.9246 18.5013C10.6334 18.2611 10.2902 18.4286 10.2928 18.8096C10.296 19.2711 10.5167 19.5469 10.8833 19.5469C11.1323 19.5469 11.2141 19.6368 11.2501 19.9505C11.2756 20.1726 11.219 20.4019 11.1242 20.4601C10.8919 20.6028 11.0663 21.0128 11.3593 21.0128C11.4886 21.0128 11.6781 20.9029 11.7808 20.7685C11.9429 20.5563 11.968 20.6305 11.9718 21.3332C11.9756 22.0233 11.9222 22.1962 11.6081 22.5082L11.2401 22.8741L10.9757 22.5368C10.8302 22.3513 10.671 22.0424 10.622 21.8505C10.573 21.6585 10.486 21.4386 10.429 21.3618C10.3718 21.285 10.2784 21.0713 10.2214 20.8869C10.1644 20.7024 9.93007 20.2352 9.70082 19.8487C9.44264 19.4134 9.27534 18.9258 9.26144 18.5675C9.23629 17.9233 9.67723 16.8673 10.0097 16.7755C10.5516 16.6258 10.9591 16.7041 11.226 17.0092ZM35.4733 17.1037C35.4849 17.2573 35.5442 17.3829 35.605 17.3829C35.7586 17.3829 35.7445 18.4655 35.5899 18.5605C35.5206 18.6031 35.4279 18.5439 35.3835 18.4292C35.2912 18.1901 35.0132 18.1457 35.0132 18.3701C35.0132 18.4525 35.1081 18.614 35.2239 18.7292C35.3398 18.8444 35.4346 19.0497 35.4346 19.1854C35.4346 19.3946 35.5474 19.4272 36.1721 19.3982C36.5776 19.3793 36.9232 19.3109 36.9398 19.246C36.9955 19.0284 36.6555 18.0793 36.4654 17.9226C36.362 17.8373 36.2763 17.6968 36.2751 17.6102C36.2727 17.4534 35.6753 16.8245 35.5289 16.8245C35.4866 16.8245 35.4616 16.9501 35.4733 17.1037ZM17.7004 17.3395C17.5651 17.3747 17.4546 17.4616 17.4546 17.5327C17.4546 17.6039 17.3598 17.6621 17.2439 17.6621C17.128 17.6621 17.0332 17.6039 17.0332 17.5327C17.0332 17.3987 17.3692 17.2757 17.7355 17.2757C17.8716 17.2757 17.8591 17.2983 17.7004 17.3395ZM26.1637 17.5006C26.1637 17.5782 26.0531 17.6704 25.9179 17.7055C25.7826 17.7406 25.8827 17.7766 26.1402 17.7855C26.4448 17.796 26.589 17.7438 26.5529 17.636C26.482 17.4244 26.1637 17.3137 26.1637 17.5006ZM30.3905 17.8648C29.9846 18.2608 29.9016 18.4519 29.8459 19.1184C29.7972 19.7035 29.707 19.9559 29.4938 20.1044C28.9056 20.5137 29.2794 21.7149 29.9309 21.5094C30.2096 21.4216 30.4984 20.6674 30.3209 20.4909C30.2749 20.4451 30.2373 20.5126 30.2373 20.6405C30.2373 20.7685 30.1385 20.8732 30.018 20.8732C29.8361 20.8732 29.8156 20.7607 29.898 20.2145C29.9527 19.8524 30.083 19.4709 30.1876 19.3669C30.2922 19.2629 30.3778 19.0958 30.3778 18.9956C30.3778 18.8953 30.4677 18.7391 30.5776 18.6483C30.7393 18.515 30.7893 18.545 30.8395 18.8058C30.8997 19.1194 30.9018 19.1198 30.9205 18.8219C30.9311 18.6534 31.0777 18.4195 31.2464 18.3021C31.5236 18.1092 31.5348 18.0547 31.3631 17.7357C31.1172 17.279 30.9712 17.2984 30.3905 17.8648ZM13.9429 17.8633C13.9429 18.0857 13.688 18.293 13.565 18.1707C13.4494 18.056 13.6297 17.6621 13.798 17.6621C13.8777 17.6621 13.9429 17.7526 13.9429 17.8633ZM16.1234 18.1957C15.6769 18.2499 15.2359 17.9566 15.5101 17.7882C15.6084 17.7279 15.8645 17.784 16.0903 17.9154L16.4946 18.1508L16.1234 18.1957ZM25.9094 18.3069C26.0344 18.4311 26.2071 18.4896 26.2929 18.4368C26.5216 18.2964 26.335 18.081 25.9849 18.081C25.7059 18.081 25.7 18.0987 25.9094 18.3069ZM18.8943 19.4073C18.8022 19.8479 18.7069 19.9758 18.4425 20.0136C17.5556 20.1401 16.5556 21.1488 16.3439 22.1303C16.2595 22.5215 16.1904 22.9326 16.1904 23.044C16.1904 23.3519 15.8 23.2858 15.6177 22.9473C15.3723 22.4916 15.559 21.593 16.0398 20.9151C16.277 20.5804 16.4713 20.2771 16.4713 20.2409C16.4713 20.0326 16.1252 20.254 15.5597 20.8242L14.9157 21.4732L14.64 21.1791C14.3515 20.8712 14.2353 19.6167 14.4953 19.6167C14.5674 19.6167 14.6664 19.491 14.7154 19.3375C14.7645 19.1839 14.8951 19.0582 15.0058 19.0582C15.1165 19.0582 15.2071 18.9954 15.2071 18.9186C15.2071 18.8418 15.5273 18.779 15.9188 18.779C16.5668 18.779 16.6227 18.8041 16.5415 19.0582C16.4925 19.2118 16.504 19.337 16.5672 19.3366C16.8225 19.335 17.7827 19.0261 17.9295 18.8984C18.016 18.8234 18.2763 18.6502 18.5081 18.5138C18.9208 18.2707 18.9304 18.2715 18.9701 18.5572C18.9926 18.7176 18.9583 19.1001 18.8943 19.4073ZM2.85688 19.3026C2.84944 19.5137 2.92642 19.616 3.09161 19.6146C3.24317 19.6132 3.27815 19.5731 3.18291 19.5099C3.09793 19.4535 2.9923 19.313 2.94819 19.1979C2.89453 19.058 2.86433 19.0927 2.85688 19.3026ZM21.6321 19.9713C21.1477 20.4179 21.1505 20.4666 21.655 20.3663C22.018 20.2942 22.0895 20.341 22.3055 20.7936C22.5583 21.323 22.5071 21.5774 22.1988 21.3248C22.0724 21.2212 21.8962 21.2326 21.5984 21.3634L21.177 21.5486L21.6803 21.5599C21.9572 21.5661 22.2237 21.6109 22.2724 21.6593C22.3211 21.7079 22.5823 21.7608 22.8525 21.7772C23.3756 21.8087 23.8434 22.2225 24.0004 22.7929C24.0481 22.9657 24.1391 23.107 24.2026 23.107C24.2661 23.107 24.3383 23.2434 24.3629 23.4102C24.3876 23.5769 24.5026 23.7418 24.6185 23.7767C24.7886 23.8278 24.7954 23.8042 24.6536 23.655C24.5571 23.5532 24.478 23.3593 24.478 23.224C24.478 23.0887 24.3237 22.4948 24.1349 21.9041C23.8707 21.077 23.6542 20.6909 23.1926 20.2234C22.5045 19.5265 22.1729 19.473 21.6321 19.9713ZM24.8995 20.4962C24.8995 20.5961 24.9643 20.7422 25.0437 20.8211C25.1229 20.8999 25.2272 21.2948 25.2753 21.6986L25.3629 22.4328L25.5504 21.8974C25.8083 21.1612 25.7949 20.5043 25.52 20.3995C25.1586 20.2617 24.8995 20.302 24.8995 20.4962ZM18.8593 21.0128C18.8593 21.1679 18.7656 21.292 18.6486 21.292C18.5316 21.292 18.4379 21.1679 18.4379 21.0128C18.4379 20.8577 18.5316 20.7336 18.6486 20.7336C18.7656 20.7336 18.8593 20.8577 18.8593 21.0128ZM7.02783 21.1267C7.05832 21.2176 7.16072 21.292 7.25525 21.292C7.44152 21.292 8.32409 22.4607 8.32409 22.7076C8.32409 22.7979 8.1256 22.8353 7.82907 22.8008C7.47663 22.76 7.26804 22.8159 7.10495 22.995C6.92557 23.1919 6.91799 23.2466 7.06969 23.2466C7.25174 23.2466 8.18881 24.1819 8.17912 24.354C8.16549 24.5958 7.74732 24.9461 7.55825 24.874C7.27014 24.7642 7.26481 25.2439 7.5515 25.4804C7.93878 25.7998 7.80603 26.3569 7.25371 26.7307C6.76137 27.0641 6.74184 27.0662 6.55235 26.8088C6.44517 26.6632 6.35527 26.4459 6.3526 26.3263C6.34979 26.2065 6.26017 25.9517 6.15341 25.76C6.01702 25.5149 6.00269 25.3595 6.10537 25.2365C6.20665 25.1152 6.20623 25.0615 6.10383 25.0615C5.86278 25.0615 5.5147 24.6433 5.5147 24.3536C5.5147 24.1486 5.61345 24.0843 5.92782 24.0843C6.34024 24.0843 6.61191 23.8716 6.43 23.691C6.37704 23.6386 6.0718 23.5956 5.75153 23.5956C5.18207 23.5956 5.16718 23.5833 5.0784 23.0429C5.0284 22.739 4.91644 22.4667 4.82963 22.438C4.74296 22.4092 4.67287 22.2495 4.67399 22.0832C4.67596 21.7971 4.68565 21.7997 4.85281 22.1297C4.97628 22.3737 5.16578 22.4919 5.48281 22.5224C6.0107 22.5734 6.0961 22.3395 5.59519 22.2146C5.40766 22.1678 5.1683 21.9567 5.06323 21.7456C4.89973 21.4168 4.90226 21.3272 5.08135 21.1202C5.24528 20.9309 5.47256 20.8874 6.1315 20.92C6.62047 20.9441 6.99553 21.0305 7.02783 21.1267ZM26.3188 21.9513C25.9497 22.517 25.7396 23.6654 26.0049 23.6654C26.0922 23.6654 26.1637 23.5677 26.1637 23.4483C26.1637 23.2411 26.5824 22.1938 26.8722 21.676C27.1458 21.187 26.6593 21.429 26.3188 21.9513ZM4.34642 22.1559C4.30161 22.2672 4.26832 22.2341 4.26158 22.0715C4.25554 21.9243 4.28869 21.842 4.33532 21.8883C4.38196 21.9347 4.38701 22.0551 4.34642 22.1559ZM9.51007 22.5614C9.3394 22.8359 9.21902 22.6653 9.28195 22.2385C9.34488 21.8128 9.35485 21.8061 9.46863 22.1117C9.53479 22.2893 9.55333 22.4917 9.51007 22.5614ZM35.5151 22.7949C35.598 22.8514 35.7066 23.0074 35.7566 23.1419C35.902 23.5338 36.2499 23.446 36.1714 23.0372C36.1199 22.7694 36.0182 22.6887 35.7343 22.6902C35.5309 22.6915 35.4323 22.7385 35.5151 22.7949ZM4.26762 23.2012C4.14527 23.4105 4.11773 23.4165 4.11422 23.235C4.10973 22.9999 4.2575 22.7881 4.35695 22.8871C4.38982 22.9198 4.34965 23.061 4.26762 23.2012ZM9.41019 24.538C9.3807 24.8644 9.35639 24.5973 9.35639 23.9447C9.35639 23.292 9.3807 23.0249 9.41019 23.3513C9.43983 23.6777 9.43983 24.2116 9.41019 24.538ZM31.2206 23.805C31.2206 23.9911 31.3143 24.0843 31.5015 24.0843C31.8622 24.0843 31.8615 24.3886 31.5001 24.7138C31.2539 24.9352 31.1731 24.9439 30.868 24.7816C30.6084 24.6435 30.5182 24.4816 30.5182 24.1538C30.5182 23.6457 30.6032 23.5258 30.9631 23.5258C31.1269 23.5258 31.2206 23.6273 31.2206 23.805ZM5.23376 24.1458C5.23376 24.2931 4.9642 24.3551 4.88399 24.2261C4.83553 24.1481 4.89439 24.0843 5.01477 24.0843C5.13515 24.0843 5.23376 24.1119 5.23376 24.1458ZM34.8384 24.4333C34.8753 24.6253 34.9526 24.7823 35.0101 24.7823C35.0677 24.7823 35.0846 24.6253 35.0476 24.4333C35.0107 24.2413 34.9334 24.0843 34.8759 24.0843C34.8183 24.0843 34.8014 24.2413 34.8384 24.4333ZM35.9083 25.0523C36.1298 25.7979 36.2775 25.9058 36.2775 25.3222C36.2775 24.8764 36.0794 24.5031 35.8428 24.5031C35.7892 24.5031 35.8187 24.7502 35.9083 25.0523ZM32.9055 24.9903C33.0687 25.2936 33.06 25.3739 32.8372 25.6186C32.5679 25.9144 31.9996 25.9958 31.8527 25.7596C31.7374 25.5742 31.5015 25.5809 31.5015 25.7695C31.5015 26.1396 30.5453 26.5661 30.5068 26.2133C30.4348 25.5527 30.462 25.3408 30.6189 25.3408C30.7181 25.3408 30.7992 25.2779 30.7992 25.2012C30.7992 25.1244 30.9256 25.0615 31.0801 25.0615C31.2346 25.0615 31.361 25.1244 31.361 25.2012C31.361 25.2779 31.4242 25.3408 31.5015 25.3408C31.5788 25.3408 31.642 25.2591 31.642 25.1593C31.642 24.5767 32.6128 24.4468 32.9055 24.9903ZM10.6299 25.3276C10.7845 25.4976 10.856 25.763 10.8272 26.0606C10.7913 26.4339 10.7135 26.5371 10.439 26.5756C9.80856 26.664 9.50473 25.8639 9.9746 25.3524C10.29 25.0092 10.3383 25.0074 10.6299 25.3276ZM33.9135 25.3543C33.6584 25.7604 33.8056 25.843 34.1588 25.492C34.4963 25.1565 34.5219 25.0615 34.2745 25.0615C34.1772 25.0615 34.0148 25.1933 33.9135 25.3543ZM9.33869 25.9341C9.27043 26.694 9.05551 26.7856 8.623 26.2393C8.26874 25.7916 8.36749 25.5149 8.93611 25.362C9.17884 25.2966 9.38224 25.2495 9.388 25.2571C9.39362 25.2647 9.37156 25.5693 9.33869 25.9341ZM34.4514 25.62C34.4514 25.6968 34.5184 25.7596 34.6001 25.7596C34.6819 25.7596 34.7098 25.8224 34.6621 25.8992C34.6143 25.976 34.6467 26.0388 34.734 26.0388C34.8214 26.0388 34.9906 26.136 35.1102 26.2549C35.2298 26.3738 35.3603 26.4384 35.4004 26.3986C35.4665 26.3328 34.6368 25.4804 34.5067 25.4804C34.4762 25.4804 34.4514 25.5432 34.4514 25.62ZM33.6085 26.6075C33.6085 26.9724 33.4582 27.2953 33.2886 27.2953C32.7388 27.2953 32.3586 26.1194 32.8711 26.0039C33.1814 25.934 33.6085 26.2836 33.6085 26.6075ZM36.0705 26.4515C36.0249 26.525 35.8844 26.5458 35.7583 26.4976C35.605 26.4392 35.5627 26.4644 35.6306 26.5735C35.7777 26.8099 36.2775 26.7743 36.2775 26.5275C36.2775 26.2882 36.1918 26.2568 36.0705 26.4515ZM8.86138 27.0128C8.92894 27.2141 8.41061 27.7142 8.13445 27.7142C7.89987 27.7142 7.71375 27.1088 7.83329 26.7345C7.90773 26.5012 7.95816 26.4944 8.36103 26.6626C8.60601 26.7651 8.83118 26.9226 8.86138 27.0128ZM21.5282 26.7793C21.5282 27.3154 21.7218 27.8538 21.9145 27.8538C22.0746 27.8538 22.1045 27.7512 22.0392 27.4268C21.9427 26.9473 21.5282 26.4221 21.5282 26.7793ZM11.655 27.2528C11.6757 27.512 11.5993 27.7898 11.4723 27.9159C11.2239 28.1629 10.993 28.2002 10.993 27.9934C10.993 27.9166 10.8982 27.8538 10.7823 27.8538C10.6361 27.8538 10.5716 27.7077 10.5716 27.3767C10.5716 26.865 10.7212 26.7373 11.271 26.7797C11.5549 26.8017 11.626 26.8892 11.655 27.2528ZM10.1943 27.2604C10.2478 27.5278 10.1888 27.728 10 27.9197C9.73018 28.1937 9.72723 28.1936 9.42944 27.8975C8.99497 27.4657 9.15974 26.8765 9.71501 26.8765C10.0417 26.8765 10.1319 26.9487 10.1943 27.2604ZM32.7053 27.7729C32.8642 28.4025 32.7343 28.6216 32.2019 28.6216C31.8073 28.6216 31.7038 28.5631 31.6691 28.3204C31.6237 28.0041 32.1183 27.4349 32.4384 27.4349C32.5382 27.4349 32.6583 27.587 32.7053 27.7729ZM8.88596 28.2726C8.88596 28.6459 8.83961 28.6914 8.4602 28.6914C8.21789 28.6914 8.00072 28.6042 7.9562 28.4892C7.84916 28.2119 8.18643 27.8655 8.56991 27.8591C8.82865 27.8548 8.88596 27.9297 8.88596 28.2726ZM17.2461 28.3424C17.1794 28.496 16.8197 28.9566 16.4469 29.3659C16.0741 29.7751 15.769 30.1786 15.769 30.2625C15.769 30.5469 16.2598 31.4764 16.4119 31.4801C16.499 31.4821 16.538 31.3138 16.504 31.0833C16.4632 30.8071 16.6039 30.3898 16.9573 29.7394C17.2811 29.1435 17.4511 28.661 17.4188 28.4295C17.3716 28.0921 17.3581 28.0853 17.2461 28.3424ZM23.8523 28.5867C23.992 29.0466 24.1021 29.1242 24.7345 29.2084C25.2679 29.2796 25.3088 29.317 25.3485 29.7708L25.3911 30.2571L25.7501 29.9249C25.9475 29.7422 26.1509 29.4842 26.2022 29.3515C26.2793 29.152 26.2124 29.1103 25.8164 29.1103C25.5529 29.1103 25.3013 29.0523 25.2574 28.9814C25.2133 28.9105 24.9926 28.8122 24.7671 28.7631C24.5415 28.7138 24.2817 28.5833 24.1897 28.4731C23.9357 28.169 23.7448 28.2332 23.8523 28.5867ZM20.0757 28.6458C19.9108 28.8097 19.9861 29.4516 20.2037 29.7378C20.3727 29.9601 20.4393 29.9781 20.5332 29.8271C20.7305 29.5099 20.307 28.416 20.0757 28.6458ZM22.7924 29.1746C22.7924 29.4403 22.7135 29.724 22.6168 29.805C21.6865 30.5853 21.6482 30.6463 21.581 31.4517C21.5143 32.2503 21.5146 32.2509 21.7236 31.8014C21.9395 31.3372 22.7531 30.4496 23.054 30.3499C23.1759 30.3095 23.1974 30.0669 23.1294 29.4925C23.026 28.6187 22.7924 28.3983 22.7924 29.1746ZM11.587 29.7014C11.5153 29.9739 11.4322 29.9992 11.1638 29.83C10.9701 29.7078 11.0735 29.2527 11.3339 29.0805C11.5154 28.9605 11.6774 29.3577 11.587 29.7014ZM18.0165 29.4636C18.0165 29.984 18.3387 30.4059 18.7951 30.4832C19.2515 30.5604 19.3395 30.7481 19.3974 31.7654C19.4379 32.4772 19.5054 32.7402 19.6477 32.7402C19.7975 32.7402 19.8426 32.4847 19.8426 31.637C19.8426 30.5656 19.8313 30.529 19.4563 30.3722C18.588 30.0092 18.4379 29.8822 18.4379 29.511C18.4379 29.307 18.3431 29.104 18.2272 29.0597C18.0648 28.9979 18.0165 29.0906 18.0165 29.4636ZM25.5491 30.8532C25.2263 31.096 25.3424 31.4837 25.7379 31.4837C26.3259 31.4837 26.8877 32.5379 26.4446 32.81C26.2817 32.9101 26.2534 33.2999 26.4095 33.2958C26.5701 33.2917 27.4396 31.7549 27.3567 31.6218C27.3168 31.5577 27.0932 31.4634 26.8597 31.4125C26.6261 31.3615 26.3352 31.1682 26.213 30.9829C25.9569 30.5944 25.9061 30.5844 25.5491 30.8532ZM27.7393 30.8743C28.0245 30.9566 28.2038 31.7319 28.0649 32.2817C27.9717 32.6513 27.977 32.6554 28.2408 32.4181C28.5185 32.1683 29.0632 31.1028 28.9599 31.0115C28.9285 30.9837 28.5868 30.9258 28.2005 30.8828C27.8142 30.8397 27.6067 30.8359 27.7393 30.8743ZM9.86925 35.5888C9.86925 35.6945 11.1957 36.2862 11.7305 36.4191C12.3422 36.571 12.1826 36.4082 11.348 36.0287C10.4985 35.6426 9.86925 35.4554 9.86925 35.5888ZM14.8999 37.8616C15.0011 37.9019 15.1224 37.8969 15.169 37.8505C15.2156 37.8042 15.1328 37.7712 14.9847 37.7772C14.8211 37.7839 14.7878 37.817 14.8999 37.8616Z" fill="#103351"/>
</g>
</svg>
