<svg width="27" height="27" viewBox="0 0 27 27" fill="none" xmlns="http://www.w3.org/2000/svg">
<g id="VectorIcons">
<path id="Vector" d="M8.17709 13.3271H15.0342M19.3199 7.32405L15.0342 13.3185L19.3199 19.3301M25.3199 4.74962C25.3199 5.65939 24.9587 6.5319 24.3157 7.1752C23.6728 7.8185 22.8007 8.17991 21.8914 8.17991C20.9821 8.17991 20.11 7.8185 19.467 7.1752C18.824 6.5319 18.4628 5.65939 18.4628 4.74962C18.4628 3.83985 18.824 2.96735 19.467 2.32404C20.11 1.68074 20.9821 1.31934 21.8914 1.31934C22.8007 1.31934 23.6728 1.68074 24.3157 2.32404C24.9587 2.96735 25.3199 3.83985 25.3199 4.74962ZM25.3199 21.889C25.3199 22.7988 24.9587 23.6713 24.3157 24.3146C23.6728 24.9579 22.8007 25.3193 21.8914 25.3193C20.9821 25.3193 20.11 24.9579 19.467 24.3146C18.824 23.6713 18.4628 22.7988 18.4628 21.889C18.4628 20.9793 18.824 20.1068 19.467 19.4635C20.11 18.8202 20.9821 18.4588 21.8914 18.4588C22.8007 18.4588 23.6728 18.8202 24.3157 19.4635C24.9587 20.1068 25.3199 20.9793 25.3199 21.889ZM8.17709 13.3185C8.17709 14.2282 7.81586 15.1008 7.17288 15.7441C6.5299 16.3874 5.65783 16.7488 4.74852 16.7488C3.8392 16.7488 2.96713 16.3874 2.32415 15.7441C1.68117 15.1008 1.31995 14.2282 1.31995 13.3185C1.31995 12.4087 1.68117 11.5362 2.32415 10.8929C2.96713 10.2496 3.8392 9.88819 4.74852 9.88819C5.65783 9.88819 6.5299 10.2496 7.17288 10.8929C7.81586 11.5362 8.17709 12.4087 8.17709 13.3185Z" stroke="white" stroke-width="1.6" stroke-linecap="square"/>
</g>
</svg>
